<svg width="18" height="18" viewBox="0 0 18 18" fill="none" xmlns="http://www.w3.org/2000/svg">
<path fill-rule="evenodd" clip-rule="evenodd" d="M4.21875 2.4375C4.16697 2.4375 4.125 2.47947 4.125 2.53125V15.4688C4.125 15.5205 4.16697 15.5625 4.21875 15.5625H13.7812C13.833 15.5625 13.875 15.5205 13.875 15.4688V8.71875C13.875 7.73499 13.0775 6.9375 12.0938 6.9375H10.9688C10.0885 6.9375 9.375 6.22395 9.375 5.34375V4.21875C9.375 3.23499 8.57751 2.4375 7.59375 2.4375H4.21875ZM4.21875 0.9375C3.33855 0.9375 2.625 1.65105 2.625 2.53125V15.4688C2.625 16.349 3.33855 17.0625 4.21875 17.0625H13.7812C14.6615 17.0625 15.375 16.349 15.375 15.4688V8.4375C15.375 4.29536 12.0171 0.9375 7.875 0.9375H4.21875ZM10.6933 3.13925C10.811 3.47731 10.875 3.84056 10.875 4.21875V5.34375C10.875 5.39553 10.917 5.4375 10.9688 5.4375H12.0938C12.4719 5.4375 12.8352 5.50148 13.1733 5.61921C12.612 4.56634 11.7462 3.70047 10.6933 3.13925Z" fill="#FFFFFF"/>
</svg>
