<svg width="18" height="18" viewBox="0 0 18 18" fill="none" xmlns="http://www.w3.org/2000/svg">
<path fill-rule="evenodd" clip-rule="evenodd" d="M9.06629 2.81445C9.02968 2.77783 8.97032 2.77783 8.93371 2.81445L4.125 7.62315V14.9062C4.125 14.958 4.16697 15 4.21875 15H6.5625V12.0937C6.5625 11.2135 7.27605 10.5 8.15625 10.5H9.84375C10.724 10.5 11.4375 11.2135 11.4375 12.0937V15H13.7812C13.833 15 13.875 14.958 13.875 14.9062V7.62316L9.06629 2.81445ZM15.375 9.12315L15.7822 9.53032C16.0751 9.82322 16.5499 9.82322 16.8428 9.53032C17.1357 9.23743 17.1357 8.76256 16.8428 8.46966L10.127 1.75379C9.50455 1.13139 8.49545 1.13139 7.87305 1.75379L1.15717 8.46966C0.864277 8.76256 0.864277 9.23743 1.15717 9.53032C1.45006 9.82322 1.92494 9.82322 2.21783 9.53032L2.625 9.12315V14.9062C2.625 15.7864 3.33855 16.5 4.21875 16.5H13.7812C14.6615 16.5 15.375 15.7864 15.375 14.9062V9.12315ZM9.9375 15H8.0625V12.0937C8.0625 12.042 8.10447 12 8.15625 12H9.84375C9.89553 12 9.9375 12.042 9.9375 12.0937V15Z" fill="#FFFFFF"/>
</svg>
