<svg width="18" height="18" viewBox="0 0 18 18" fill="none" xmlns="http://www.w3.org/2000/svg">
<path d="M6 12.75C5.85166 12.75 5.70666 12.794 5.58332 12.8764C5.45999 12.9588 5.36386 13.0759 5.30709 13.213C5.25032 13.35 5.23547 13.5008 5.26441 13.6463C5.29335 13.7918 5.36478 13.9254 5.46967 14.0303C5.57456 14.1352 5.7082 14.2066 5.85368 14.2356C5.99917 14.2645 6.14997 14.2497 6.28701 14.1929C6.42406 14.1361 6.54119 14.04 6.6236 13.9167C6.70601 13.7933 6.75 13.6483 6.75 13.5C6.75 13.3011 6.67098 13.1103 6.53033 12.9697C6.38968 12.829 6.19891 12.75 6 12.75ZM6 8.25C5.85166 8.25 5.70666 8.29399 5.58332 8.3764C5.45999 8.45881 5.36386 8.57594 5.30709 8.71299C5.25032 8.85003 5.23547 9.00083 5.26441 9.14632C5.29335 9.2918 5.36478 9.42544 5.46967 9.53033C5.57456 9.63522 5.7082 9.70665 5.85368 9.73559C5.99917 9.76453 6.14997 9.74968 6.28701 9.69291C6.42406 9.63614 6.54119 9.54002 6.6236 9.41668C6.70601 9.29334 6.75 9.14834 6.75 9C6.75 8.80109 6.67098 8.61032 6.53033 8.46967C6.38968 8.32902 6.19891 8.25 6 8.25ZM12 1.5H6C5.20435 1.5 4.44129 1.81607 3.87868 2.37868C3.31607 2.94129 3 3.70435 3 4.5V13.5C3 14.2956 3.31607 15.0587 3.87868 15.6213C4.44129 16.1839 5.20435 16.5 6 16.5H12C12.7956 16.5 13.5587 16.1839 14.1213 15.6213C14.6839 15.0587 15 14.2956 15 13.5V4.5C15 3.70435 14.6839 2.94129 14.1213 2.37868C13.5587 1.81607 12.7956 1.5 12 1.5ZM13.5 13.5C13.5 13.8978 13.342 14.2794 13.0607 14.5607C12.7794 14.842 12.3978 15 12 15H6C5.60218 15 5.22064 14.842 4.93934 14.5607C4.65804 14.2794 4.5 13.8978 4.5 13.5V11.58C4.95299 11.8527 5.47128 11.9978 6 12H12C12.5287 11.9978 13.047 11.8527 13.5 11.58V13.5ZM13.5 9C13.5 9.39782 13.342 9.77936 13.0607 10.0607C12.7794 10.342 12.3978 10.5 12 10.5H6C5.60218 10.5 5.22064 10.342 4.93934 10.0607C4.65804 9.77936 4.5 9.39782 4.5 9V7.08C4.95299 7.35266 5.47128 7.49778 6 7.5H12C12.5287 7.49778 13.047 7.35266 13.5 7.08V9ZM12 6H6C5.60218 6 5.22064 5.84196 4.93934 5.56066C4.65804 5.27936 4.5 4.89782 4.5 4.5C4.5 4.10218 4.65804 3.72064 4.93934 3.43934C5.22064 3.15804 5.60218 3 6 3H12C12.3978 3 12.7794 3.15804 13.0607 3.43934C13.342 3.72064 13.5 4.10218 13.5 4.5C13.5 4.89782 13.342 5.27936 13.0607 5.56066C12.7794 5.84196 12.3978 6 12 6Z" fill="#FFFFFF"/>
</svg>
