<svg width="18" height="18" viewBox="0 0 18 18" fill="none" xmlns="http://www.w3.org/2000/svg">
<path fill-rule="evenodd" clip-rule="evenodd" d="M1.5 3.93713C1.5 2.59094 2.59131 1.49963 3.9375 1.49963H14.0625C15.4087 1.49963 16.5 2.59094 16.5 3.93713V11.2496C16.5 12.5958 15.4087 13.6871 14.0625 13.6871H12V13.6927C12 14.0905 12.158 14.472 12.4393 14.7533L12.9053 15.2193C13.1198 15.4338 13.184 15.7564 13.0679 16.0366C12.9518 16.3169 12.6783 16.4996 12.375 16.4996H5.625C5.32165 16.4996 5.04818 16.3169 4.93209 16.0366C4.816 15.7564 4.88017 15.4338 5.09467 15.2193L5.56066 14.7533C5.84196 14.472 6 14.0905 6 13.6927V13.6871H3.9375C2.59131 13.6871 1.5 12.5958 1.5 11.2496V3.93713ZM3 3.93713V8.99963C3 9.5174 3.41973 9.93713 3.9375 9.93713H14.0625C14.5803 9.93713 15 9.5174 15 8.99963V3.93713C15 3.41937 14.5803 2.99963 14.0625 2.99963H3.9375C3.41973 2.99963 3 3.41937 3 3.93713ZM15 11.2503C14.7114 11.3707 14.3947 11.4371 14.0625 11.4371H3.9375C3.60529 11.4371 3.2886 11.3707 3 11.2503C3.00037 11.7678 3.41996 12.1871 3.9375 12.1871H14.0625C14.58 12.1871 14.9996 11.7678 15 11.2503ZM10.5 13.6871H7.5V13.6927C7.5 14.1497 7.39572 14.5959 7.20034 14.9996H10.7997C10.6043 14.5959 10.5 14.1497 10.5 13.6927V13.6871Z" fill="#2671D9"/>
</svg>
