<svg width="18" height="18" viewBox="0 0 18 18" fill="none" xmlns="http://www.w3.org/2000/svg">
<path fill-rule="evenodd" clip-rule="evenodd" d="M6.45539 2.83174C6.58347 2.06325 7.24837 1.5 8.02746 1.5H9.97293C10.752 1.5 11.4169 2.06325 11.545 2.83174L11.7051 3.79253C11.7085 3.81251 11.73 3.86644 11.8116 3.91159C11.8755 3.94696 11.9386 3.98349 12.001 4.02115C12.0807 4.06926 12.1382 4.06103 12.1572 4.05391L13.0698 3.712C13.7994 3.43868 14.6196 3.73287 15.0092 4.40758L15.9819 6.09241C16.3715 6.76712 16.2161 7.62456 15.6146 8.11973L14.8614 8.73984C14.8456 8.75283 14.81 8.79829 14.8117 8.89051C14.8124 8.92693 14.8127 8.96342 14.8127 9C14.8127 9.03656 14.8124 9.07305 14.8117 9.10948C14.81 9.2017 14.8456 9.24717 14.8614 9.26015L15.6146 9.88026C16.2161 10.3754 16.3715 11.2329 15.9819 11.9076L15.0092 13.5924C14.6196 14.2671 13.7994 14.5613 13.0698 14.288L12.1572 13.9461C12.1382 13.939 12.0807 13.9307 12.001 13.9788C11.9387 14.0165 11.8755 14.053 11.8116 14.0884C11.73 14.1336 11.7085 14.1875 11.7051 14.2075L11.545 15.1683C11.4169 15.9367 10.752 16.5 9.97293 16.5H8.02746C7.24837 16.5 6.58347 15.9367 6.45539 15.1683L6.29526 14.2075C6.29193 14.1875 6.27034 14.1336 6.18877 14.0884C6.12489 14.053 6.06174 14.0165 5.99937 13.9789C5.91969 13.9307 5.86222 13.939 5.84322 13.9461L4.93057 14.288C4.201 14.5613 3.38076 14.2671 2.99122 13.5924L2.01848 11.9076C1.62894 11.2329 1.78428 10.3754 2.38577 9.88027L3.13903 9.26016C3.15481 9.24718 3.19041 9.20171 3.18871 9.10949C3.18803 9.07306 3.18769 9.03657 3.18769 9C3.18769 8.96344 3.18803 8.92694 3.18871 8.89052C3.19041 8.7983 3.15481 8.75284 3.13903 8.73985L2.38577 8.11974C1.78428 7.62457 1.62894 6.76713 2.01848 6.09242L2.99122 4.40759C3.38076 3.73288 4.201 3.43869 4.93057 3.71201L5.84321 4.05392C5.86221 4.06104 5.91968 4.06927 5.99935 4.02116C6.06173 3.98349 6.12488 3.94696 6.18877 3.91159C6.27034 3.86644 6.29193 3.81251 6.29526 3.79252L6.45539 2.83174ZM8.02746 3C7.98163 3 7.94252 3.03313 7.93498 3.07834L7.77485 4.03912C7.68467 4.58021 7.3313 4.99363 6.91522 5.22395C6.86784 5.25017 6.821 5.27727 6.77473 5.30521C6.36685 5.5515 5.83132 5.65127 5.31697 5.45858L4.40434 5.11667C4.36142 5.1006 4.31317 5.1179 4.29026 5.15759L3.31752 6.84242C3.2946 6.88211 3.30374 6.93255 3.33912 6.96167L4.09239 7.58179C4.51537 7.93 4.69726 8.4423 4.68845 8.91829C4.68795 8.94546 4.68769 8.9727 4.68769 9C4.68769 9.02731 4.68795 9.05455 4.68845 9.08171C4.69727 9.55771 4.51538 10.07 4.09239 10.4182L3.33912 11.0383C3.30374 11.0675 3.29461 11.1179 3.31752 11.1576L4.29026 12.8424C4.31317 12.8821 4.36142 12.8994 4.40434 12.8833L5.31699 12.5414C5.83133 12.3487 6.36686 12.4485 6.77473 12.6948C6.82101 12.7227 6.86784 12.7498 6.91522 12.7761C7.3313 13.0064 7.68467 13.4198 7.77485 13.9609L7.93498 14.9217C7.94252 14.9669 7.98163 15 8.02746 15H9.97293C10.0188 15 10.0579 14.9669 10.0654 14.9217L10.2255 13.9609C10.3157 13.4198 10.6691 13.0064 11.0852 12.7761C11.1325 12.7498 11.1794 12.7227 11.2257 12.6948C11.6335 12.4485 12.1691 12.3487 12.6834 12.5414L13.5961 12.8833C13.639 12.8994 13.6872 12.8821 13.7101 12.8424L14.6829 11.1576C14.7058 11.1179 14.6966 11.0675 14.6613 11.0383L13.908 10.4182C13.485 10.07 13.3031 9.5577 13.3119 9.08171C13.3124 9.05455 13.3127 9.02731 13.3127 9C13.3127 8.9727 13.3124 8.94546 13.3119 8.91828C13.3031 8.44228 13.485 7.92999 13.908 7.58178L14.6613 6.96166C14.6966 6.93254 14.7058 6.8821 14.6829 6.84241L13.7101 5.15758C13.6872 5.11789 13.639 5.10059 13.5961 5.11666L12.6834 5.45857C12.1691 5.65127 11.6335 5.5515 11.2257 5.30521C11.1794 5.27726 11.1325 5.25017 11.0852 5.22395C10.6691 4.99363 10.3157 4.58021 10.2255 4.03912L10.0654 3.07834C10.0579 3.03313 10.0188 3 9.97293 3H8.02746ZM9.00002 7.49994C8.17159 7.49994 7.50002 8.17151 7.50002 8.99994C7.50002 9.82837 8.17159 10.4999 9.00002 10.4999C9.82845 10.4999 10.5 9.82837 10.5 8.99994C10.5 8.17151 9.82845 7.49994 9.00002 7.49994ZM6.00002 8.99994C6.00002 7.34309 7.34317 5.99994 9.00002 5.99994C10.6569 5.99994 12 7.34309 12 8.99994C12 10.6568 10.6569 11.9999 9.00002 11.9999C7.34317 11.9999 6.00002 10.6568 6.00002 8.99994Z" fill="#FFFFFF"/>
</svg>
