<svg width="18" height="18" viewBox="0 0 18 18" fill="none" xmlns="http://www.w3.org/2000/svg">
<path fill-rule="evenodd" clip-rule="evenodd" d="M1.91669 1.81691C2.11008 1.62044 2.39567 1.54591 2.66041 1.62281C7.70524 3.0883 12.3901 5.3988 16.5515 8.39049C16.7475 8.5314 16.8637 8.75805 16.8637 8.99945C16.8637 9.24085 16.7475 9.4675 16.5515 9.60842C12.3901 12.6002 7.7053 14.9107 2.66049 16.3763C2.39575 16.4532 2.11016 16.3786 1.91676 16.1822C1.72337 15.9857 1.65335 15.699 1.73442 15.4355L3.71468 8.99965L1.73436 2.5636C1.65328 2.30011 1.7233 2.01338 1.91669 1.81691ZM5.05331 9.74965L3.5848 14.5223C7.60945 13.2121 11.381 11.3404 14.8071 8.99946C11.381 6.65859 7.60939 4.78694 3.58472 3.47674L5.05331 8.24965L10.1246 8.24965C10.5388 8.24965 10.8746 8.58544 10.8746 8.99965C10.8746 9.41387 10.5388 9.74965 10.1246 9.74965L5.05331 9.74965Z" fill="#2671D9"/>
</svg>
