<svg width="49" height="48" viewBox="0 0 49 48" fill="none" xmlns="http://www.w3.org/2000/svg">
<circle cx="24.5" cy="24" r="24" fill="#F6F7FD"/>
<path d="M17.6605 28V19.2727H21.2997C21.9531 19.2727 22.5 19.3651 22.9403 19.5497C23.3835 19.7344 23.7159 19.9929 23.9375 20.3253C24.1619 20.6577 24.2741 21.0426 24.2741 21.4801C24.2741 21.8125 24.2045 22.1094 24.0653 22.3707C23.9261 22.6293 23.7344 22.8437 23.4901 23.0142C23.2457 23.1847 22.9631 23.304 22.642 23.3722V23.4574C22.9943 23.4744 23.3196 23.5696 23.6179 23.7429C23.919 23.9162 24.1605 24.1577 24.3423 24.4673C24.5241 24.7741 24.6151 25.1378 24.6151 25.5582C24.6151 26.027 24.4957 26.446 24.2571 26.8153C24.0185 27.1818 23.6733 27.4716 23.2216 27.6847C22.7699 27.8949 22.2216 28 21.5767 28H17.6605ZM19.7699 26.2997H21.0739C21.5313 26.2997 21.8679 26.2131 22.0838 26.0398C22.3026 25.8665 22.4119 25.625 22.4119 25.3153C22.4119 25.0909 22.3594 24.8977 22.2543 24.7358C22.1491 24.571 22 24.4446 21.8068 24.3565C21.6136 24.2656 21.3821 24.2202 21.1122 24.2202H19.7699V26.2997ZM19.7699 22.8608H20.9375C21.1676 22.8608 21.3722 22.8224 21.5511 22.7457C21.7301 22.669 21.8693 22.5582 21.9688 22.4134C22.071 22.2685 22.1222 22.0937 22.1222 21.8892C22.1222 21.5966 22.0185 21.3665 21.8111 21.1989C21.6037 21.0312 21.3239 20.9474 20.9716 20.9474H19.7699V22.8608ZM25.6293 28V19.2727H29.2685C29.9219 19.2727 30.4688 19.3651 30.9091 19.5497C31.3523 19.7344 31.6847 19.9929 31.9062 20.3253C32.1307 20.6577 32.2429 21.0426 32.2429 21.4801C32.2429 21.8125 32.1733 22.1094 32.0341 22.3707C31.8949 22.6293 31.7031 22.8437 31.4588 23.0142C31.2145 23.1847 30.9318 23.304 30.6108 23.3722V23.4574C30.9631 23.4744 31.2884 23.5696 31.5866 23.7429C31.8878 23.9162 32.1293 24.1577 32.3111 24.4673C32.4929 24.7741 32.5838 25.1378 32.5838 25.5582C32.5838 26.027 32.4645 26.446 32.2259 26.8153C31.9872 27.1818 31.642 27.4716 31.1903 27.6847C30.7386 27.8949 30.1903 28 29.5455 28H25.6293ZM27.7386 26.2997H29.0426C29.5 26.2997 29.8366 26.2131 30.0526 26.0398C30.2713 25.8665 30.3807 25.625 30.3807 25.3153C30.3807 25.0909 30.3281 24.8977 30.223 24.7358C30.1179 24.571 29.9688 24.4446 29.7756 24.3565C29.5824 24.2656 29.3509 24.2202 29.081 24.2202H27.7386V26.2997ZM27.7386 22.8608H28.9062C29.1364 22.8608 29.3409 22.8224 29.5199 22.7457C29.6989 22.669 29.8381 22.5582 29.9375 22.4134C30.0398 22.2685 30.0909 22.0937 30.0909 21.8892C30.0909 21.5966 29.9872 21.3665 29.7798 21.1989C29.5724 21.0312 29.2926 20.9474 28.9403 20.9474H27.7386V22.8608Z" fill="#8C90EE"/>
</svg>
