<svg width="51" height="50" viewBox="0 0 51 50" fill="none" xmlns="http://www.w3.org/2000/svg">
<rect x="0.5" width="50" height="50" rx="8" fill="#FFF6DF"/>
<path d="M18.75 25.8438C18.75 25.3778 19.1278 25 19.5938 25H21.2812C21.7472 25 22.125 25.3778 22.125 25.8438V30.9062C22.125 31.3722 21.7472 31.75 21.2812 31.75H19.5938C19.1278 31.75 18.75 31.3722 18.75 30.9062V25.8438Z" fill="#FFAA00"/>
<path d="M23.8125 22.4687C23.8125 22.0028 24.1903 21.625 24.6562 21.625H26.3438C26.8097 21.625 27.1875 22.0028 27.1875 22.4688V30.9062C27.1875 31.3722 26.8097 31.75 26.3438 31.75H24.6562C24.1903 31.75 23.8125 31.3722 23.8125 30.9062V22.4687Z" fill="#FFAA00"/>
<path d="M28.875 19.0938C28.875 18.6278 29.2528 18.25 29.7188 18.25H31.4062C31.8722 18.25 32.25 18.6278 32.25 19.0938V30.9062C32.25 31.3722 31.8722 31.75 31.4062 31.75H29.7188C29.2528 31.75 28.875 31.3722 28.875 30.9062V19.0938Z" fill="#FFAA00"/>
<path d="M18.75 25.8438C18.75 25.3778 19.1278 25 19.5938 25H21.2812C21.7472 25 22.125 25.3778 22.125 25.8438V30.9062C22.125 31.3722 21.7472 31.75 21.2812 31.75H19.5938C19.1278 31.75 18.75 31.3722 18.75 30.9062V25.8438Z" stroke="#FFAA00" stroke-linecap="round" stroke-linejoin="round"/>
<path d="M23.8125 22.4687C23.8125 22.0028 24.1903 21.625 24.6562 21.625H26.3438C26.8097 21.625 27.1875 22.0028 27.1875 22.4688V30.9062C27.1875 31.3722 26.8097 31.75 26.3438 31.75H24.6562C24.1903 31.75 23.8125 31.3722 23.8125 30.9062V22.4687Z" stroke="#FFAA00" stroke-linecap="round" stroke-linejoin="round"/>
<path d="M28.875 19.0938C28.875 18.6278 29.2528 18.25 29.7188 18.25H31.4062C31.8722 18.25 32.25 18.6278 32.25 19.0938V30.9062C32.25 31.3722 31.8722 31.75 31.4062 31.75H29.7188C29.2528 31.75 28.875 31.3722 28.875 30.9062V19.0938Z" stroke="#FFAA00" stroke-linecap="round" stroke-linejoin="round"/>
<path fill-rule="evenodd" clip-rule="evenodd" d="M24.6028 16.916C24.7181 16.6276 25.0455 16.4873 25.3339 16.6026L27.2089 17.3526C27.362 17.4139 27.4805 17.5391 27.5331 17.6953C27.5857 17.8515 27.5672 18.023 27.4824 18.1643L26.3574 20.0393C26.1975 20.3057 25.852 20.3921 25.5856 20.2322C25.3192 20.0724 25.2329 19.7269 25.3927 19.4605L25.7974 18.7859L23.3007 19.4669L22.2767 22.1974C22.2046 22.3898 22.0332 22.5276 21.8298 22.5567C21.6264 22.5859 21.4233 22.5018 21.3 22.3374L20.625 21.4374L18.825 23.8374C18.6386 24.0859 18.2861 24.1363 18.0375 23.9499C17.789 23.7635 17.7386 23.4109 17.925 23.1624L20.175 20.1624C20.2813 20.0208 20.448 19.9374 20.625 19.9374C20.8021 19.9374 20.9688 20.0208 21.075 20.1624L21.5839 20.8409L22.3483 18.8024C22.4118 18.6332 22.5527 18.5048 22.727 18.4572L25.2328 17.7738L24.9161 17.6472C24.6277 17.5318 24.4874 17.2044 24.6028 16.916Z" fill="#FFAA00"/>
</svg>
