<svg width="48" height="48" viewBox="0 0 48 48" fill="none" xmlns="http://www.w3.org/2000/svg">
<circle cx="24" cy="24" r="24" fill="#F6F7FD"/>
<path d="M20.5824 22.4347H18.4517C18.4233 22.2159 18.3651 22.0185 18.277 21.8423C18.1889 21.6662 18.0724 21.5156 17.9276 21.3906C17.7827 21.2656 17.6108 21.1705 17.4119 21.1051C17.2159 21.0369 16.9986 21.0028 16.7599 21.0028C16.3366 21.0028 15.9716 21.1065 15.6648 21.3139C15.3608 21.5213 15.1264 21.821 14.9616 22.2131C14.7997 22.6051 14.7188 23.0795 14.7188 23.6364C14.7188 24.2159 14.8011 24.7017 14.9659 25.0938C15.1335 25.483 15.3679 25.777 15.669 25.9759C15.973 26.1719 16.3324 26.2699 16.7472 26.2699C16.9801 26.2699 17.1918 26.2401 17.3821 26.1804C17.5753 26.1207 17.7443 26.0341 17.8892 25.9205C18.0369 25.804 18.1577 25.6634 18.2514 25.4986C18.348 25.331 18.4148 25.142 18.4517 24.9318L20.5824 24.9446C20.5455 25.331 20.4332 25.7116 20.2457 26.0866C20.0611 26.4616 19.8068 26.804 19.483 27.1136C19.1591 27.4205 18.7642 27.6648 18.2983 27.8466C17.8352 28.0284 17.304 28.1193 16.7045 28.1193C15.9148 28.1193 15.2074 27.946 14.5824 27.5994C13.9602 27.25 13.4688 26.7415 13.108 26.0739C12.7472 25.4062 12.5668 24.5937 12.5668 23.6364C12.5668 22.6761 12.75 21.8622 13.1165 21.1946C13.483 20.527 13.9787 20.0199 14.6037 19.6733C15.2287 19.3267 15.929 19.1534 16.7045 19.1534C17.233 19.1534 17.7216 19.2273 18.1705 19.375C18.6193 19.5199 19.0142 19.733 19.3551 20.0142C19.696 20.2926 19.973 20.6349 20.1861 21.0412C20.3991 21.4474 20.5312 21.9119 20.5824 22.4347ZM21.7894 28V19.2727H23.8988V22.7756H27.3377V19.2727H29.4428V28H27.3377V24.4929H23.8988V28H21.7894ZM30.4379 28.6903V27.5483L32.82 24.267H33.7915V25.7926H33.2205L31.8867 27.4844V27.5312H35.3768V28.6903H30.4379ZM33.2546 29.5V28.3452L33.2844 27.8338V24.267H34.631V29.5H33.2546Z" fill="#397E5D"/>
</svg>
