<svg width="16" height="16" viewBox="0 0 16 16" fill="none" xmlns="http://www.w3.org/2000/svg">
<rect width="16" height="16" rx="4" fill="#2671D9"/>
<path d="M12.7106 4.78965C12.6487 4.72716 12.5749 4.67757 12.4937 4.64372C12.4125 4.60987 12.3253 4.59245 12.2373 4.59245C12.1493 4.59245 12.0622 4.60987 11.9809 4.64372C11.8997 4.67757 11.826 4.72716 11.764 4.78965L6.79731 9.76298L4.71065 7.66965C4.6463 7.60749 4.57034 7.55861 4.4871 7.52581C4.40386 7.49301 4.31498 7.47692 4.22553 7.47847C4.13607 7.48002 4.0478 7.49917 3.96575 7.53483C3.8837 7.57049 3.80947 7.62197 3.74731 7.68632C3.68515 7.75066 3.63628 7.82662 3.60347 7.90986C3.57067 7.9931 3.55458 8.08198 3.55613 8.17143C3.55768 8.26089 3.57683 8.34916 3.61249 8.43121C3.64816 8.51326 3.69963 8.58749 3.76398 8.64965L6.32398 11.2096C6.38595 11.2721 6.45969 11.3217 6.54093 11.3556C6.62217 11.3894 6.7093 11.4068 6.79731 11.4068C6.88532 11.4068 6.97246 11.3894 7.0537 11.3556C7.13494 11.3217 7.20867 11.2721 7.27065 11.2096L12.7106 5.76965C12.7783 5.70722 12.8323 5.63145 12.8693 5.54712C12.9062 5.46279 12.9253 5.37172 12.9253 5.27965C12.9253 5.18758 12.9062 5.09651 12.8693 5.01218C12.8323 4.92784 12.7783 4.85208 12.7106 4.78965Z" fill="white"/>
</svg>
