<svg width="18" height="18" viewBox="0 0 18 18" fill="none" xmlns="http://www.w3.org/2000/svg">
<rect width="18" height="18" rx="4" fill="#2671D9"/>
<path d="M14.2989 5.38786C14.2292 5.31757 14.1463 5.26177 14.0549 5.2237C13.9635 5.18562 13.8655 5.16602 13.7664 5.16602C13.6674 5.16602 13.5694 5.18562 13.478 5.2237C13.3866 5.26177 13.3037 5.31757 13.2339 5.38786L7.64644 10.9829L5.29894 8.62786C5.22655 8.55794 5.14109 8.50295 5.04745 8.46605C4.95381 8.42914 4.85382 8.41105 4.75318 8.41279C4.65255 8.41453 4.55324 8.43607 4.46093 8.47619C4.36862 8.51631 4.28512 8.57422 4.21519 8.64661C4.14526 8.71901 4.09028 8.80446 4.05337 8.8981C4.01647 8.99174 3.99837 9.09174 4.00011 9.19237C4.00186 9.29301 4.0234 9.39232 4.06352 9.48462C4.10364 9.57693 4.16155 9.66044 4.23394 9.73036L7.11394 12.6104C7.18366 12.6807 7.26662 12.7365 7.35801 12.7745C7.4494 12.8126 7.54743 12.8322 7.64644 12.8322C7.74545 12.8322 7.84348 12.8126 7.93487 12.7745C8.02627 12.7365 8.10922 12.6807 8.17894 12.6104L14.2989 6.49036C14.3751 6.42013 14.4358 6.33489 14.4774 6.24002C14.5189 6.14514 14.5404 6.04269 14.5404 5.93911C14.5404 5.83554 14.5189 5.73308 14.4774 5.63821C14.4358 5.54333 14.3751 5.4581 14.2989 5.38786V5.38786Z" fill="white"/>
</svg>
