<svg width="12" height="12" viewBox="0 0 12 12" fill="none" xmlns="http://www.w3.org/2000/svg">
<circle cx="6" cy="6" r="6" fill="#0D98F2"/>
<path d="M3.8789 8.82816L6.00022 6.70684L8.12154 8.82816C8.21531 8.92193 8.34249 8.97461 8.4751 8.97461C8.60771 8.97461 8.73488 8.92193 8.82865 8.82816C8.92242 8.73439 8.9751 8.60722 8.9751 8.47461C8.9751 8.342 8.92242 8.21482 8.82865 8.12106L6.70733 5.99974L8.82865 3.87842C8.92242 3.78465 8.9751 3.65747 8.9751 3.52486C8.9751 3.39225 8.92242 3.26508 8.82865 3.17131C8.73488 3.07754 8.60771 3.02486 8.4751 3.02486C8.34249 3.02486 8.21531 3.07754 8.12154 3.17131L6.00022 5.29263L3.8789 3.17131C3.78514 3.07754 3.65796 3.02486 3.52535 3.02486C3.39274 3.02486 3.26557 3.07754 3.1718 3.17131C3.07803 3.26508 3.02535 3.39225 3.02535 3.52486C3.02535 3.65747 3.07803 3.78465 3.1718 3.87841L5.29312 5.99974L3.1718 8.12106C3.07803 8.21482 3.02535 8.342 3.02535 8.47461C3.02535 8.60722 3.07803 8.73439 3.1718 8.82816C3.26556 8.92193 3.39274 8.97461 3.52535 8.97461C3.65796 8.97461 3.78514 8.92193 3.8789 8.82816Z" fill="white"/>
</svg>
