<svg width="48" height="48" viewBox="0 0 48 48" fill="none" xmlns="http://www.w3.org/2000/svg">
<circle cx="24" cy="24" r="24" fill="#F6F7FD"/>
<path d="M20.5824 22.4347H18.4517C18.4233 22.2159 18.3651 22.0185 18.277 21.8423C18.1889 21.6662 18.0724 21.5156 17.9276 21.3906C17.7827 21.2656 17.6108 21.1705 17.4119 21.1051C17.2159 21.0369 16.9986 21.0028 16.7599 21.0028C16.3366 21.0028 15.9716 21.1065 15.6648 21.3139C15.3608 21.5213 15.1264 21.821 14.9616 22.2131C14.7997 22.6051 14.7188 23.0795 14.7188 23.6364C14.7188 24.2159 14.8011 24.7017 14.9659 25.0938C15.1335 25.483 15.3679 25.777 15.669 25.9759C15.973 26.1719 16.3324 26.2699 16.7472 26.2699C16.9801 26.2699 17.1918 26.2401 17.3821 26.1804C17.5753 26.1207 17.7443 26.0341 17.8892 25.9205C18.0369 25.804 18.1577 25.6634 18.2514 25.4986C18.348 25.331 18.4148 25.142 18.4517 24.9318L20.5824 24.9446C20.5455 25.331 20.4332 25.7116 20.2457 26.0866C20.0611 26.4616 19.8068 26.804 19.483 27.1136C19.1591 27.4205 18.7642 27.6648 18.2983 27.8466C17.8352 28.0284 17.304 28.1193 16.7045 28.1193C15.9148 28.1193 15.2074 27.946 14.5824 27.5994C13.9602 27.25 13.4688 26.7415 13.108 26.0739C12.7472 25.4062 12.5668 24.5937 12.5668 23.6364C12.5668 22.6761 12.75 21.8622 13.1165 21.1946C13.483 20.527 13.9787 20.0199 14.6037 19.6733C15.2287 19.3267 15.929 19.1534 16.7045 19.1534C17.233 19.1534 17.7216 19.2273 18.1705 19.375C18.6193 19.5199 19.0142 19.733 19.3551 20.0142C19.696 20.2926 19.973 20.6349 20.1861 21.0412C20.3991 21.4474 20.5312 21.9119 20.5824 22.4347ZM30.0266 23.6364C30.0266 24.5966 29.842 25.4105 29.4727 26.0781C29.1033 26.7457 28.6033 27.2528 27.9727 27.5994C27.3448 27.946 26.6403 28.1193 25.859 28.1193C25.0749 28.1193 24.369 27.9446 23.7411 27.5952C23.1133 27.2457 22.6147 26.7386 22.2454 26.0739C21.8789 25.4062 21.6957 24.5937 21.6957 23.6364C21.6957 22.6761 21.8789 21.8622 22.2454 21.1946C22.6147 20.527 23.1133 20.0199 23.7411 19.6733C24.369 19.3267 25.0749 19.1534 25.859 19.1534C26.6403 19.1534 27.3448 19.3267 27.9727 19.6733C28.6033 20.0199 29.1033 20.527 29.4727 21.1946C29.842 21.8622 30.0266 22.6761 30.0266 23.6364ZM27.8704 23.6364C27.8704 23.0682 27.7894 22.5881 27.6275 22.196C27.4684 21.804 27.2383 21.5071 26.9371 21.3054C26.6388 21.1037 26.2795 21.0028 25.859 21.0028C25.4414 21.0028 25.082 21.1037 24.7809 21.3054C24.4798 21.5071 24.2482 21.804 24.0863 22.196C23.9272 22.5881 23.8477 23.0682 23.8477 23.6364C23.8477 24.2045 23.9272 24.6847 24.0863 25.0767C24.2482 25.4687 24.4798 25.7656 24.7809 25.9673C25.082 26.169 25.4414 26.2699 25.859 26.2699C26.2795 26.2699 26.6388 26.169 26.9371 25.9673C27.2383 25.7656 27.4684 25.4687 27.6275 25.0767C27.7894 24.6847 27.8704 24.2045 27.8704 23.6364ZM31.1005 29.5V28.4688L33.2013 26.8452C33.3462 26.7315 33.4741 26.6278 33.5849 26.5341C33.6957 26.4375 33.7823 26.3395 33.8448 26.2401C33.9102 26.1406 33.9428 26.0284 33.9428 25.9034C33.9428 25.7159 33.8633 25.5739 33.7042 25.4773C33.5479 25.3778 33.359 25.3281 33.1374 25.3281C32.8988 25.3281 32.707 25.3835 32.5621 25.4943C32.4173 25.6051 32.3448 25.7727 32.3448 25.9972H30.9684C30.9684 25.429 31.1729 24.9872 31.582 24.6719C31.994 24.3565 32.5181 24.1989 33.1545 24.1989C33.592 24.1989 33.9712 24.2741 34.2923 24.4247C34.6161 24.5753 34.8661 24.7784 35.0423 25.0341C35.2184 25.2898 35.3065 25.5739 35.3065 25.8864C35.3065 26.142 35.2525 26.3793 35.1445 26.598C35.0394 26.8168 34.8761 27.0284 34.6545 27.233C34.4357 27.4375 34.1545 27.6449 33.8107 27.8551L33.163 28.2812V28.3281H35.3363V29.5H31.1005Z" fill="#FFAA00"/>
</svg>
