<svg width="49" height="48" viewBox="0 0 49 48" fill="none" xmlns="http://www.w3.org/2000/svg">
<circle cx="24.5" cy="24" r="24" fill="#F6F7FD"/>
<path d="M17.5824 22.4347H15.4517C15.4233 22.2159 15.3651 22.0185 15.277 21.8423C15.1889 21.6662 15.0724 21.5156 14.9276 21.3906C14.7827 21.2656 14.6108 21.1705 14.4119 21.1051C14.2159 21.0369 13.9986 21.0028 13.7599 21.0028C13.3366 21.0028 12.9716 21.1065 12.6648 21.3139C12.3608 21.5213 12.1264 21.821 11.9616 22.2131C11.7997 22.6051 11.7188 23.0795 11.7188 23.6364C11.7188 24.2159 11.8011 24.7017 11.9659 25.0938C12.1335 25.483 12.3679 25.777 12.669 25.9759C12.973 26.1719 13.3324 26.2699 13.7472 26.2699C13.9801 26.2699 14.1918 26.2401 14.3821 26.1804C14.5753 26.1207 14.7443 26.0341 14.8892 25.9205C15.0369 25.804 15.1577 25.6634 15.2514 25.4986C15.348 25.331 15.4148 25.142 15.4517 24.9318L17.5824 24.9446C17.5455 25.331 17.4332 25.7116 17.2457 26.0866C17.0611 26.4616 16.8068 26.804 16.483 27.1136C16.1591 27.4205 15.7642 27.6648 15.2983 27.8466C14.8352 28.0284 14.304 28.1193 13.7045 28.1193C12.9148 28.1193 12.2074 27.946 11.5824 27.5994C10.9602 27.25 10.4688 26.7415 10.108 26.0739C9.74716 25.4062 9.56676 24.5937 9.56676 23.6364C9.56676 22.6761 9.75 21.8622 10.1165 21.1946C10.483 20.527 10.9787 20.0199 11.6037 19.6733C12.2287 19.3267 12.929 19.1534 13.7045 19.1534C14.233 19.1534 14.7216 19.2273 15.1705 19.375C15.6193 19.5199 16.0142 19.733 16.3551 20.0142C16.696 20.2926 16.973 20.6349 17.1861 21.0412C17.3991 21.4474 17.5312 21.9119 17.5824 22.4347ZM27.0266 23.6364C27.0266 24.5966 26.842 25.4105 26.4727 26.0781C26.1033 26.7457 25.6033 27.2528 24.9727 27.5994C24.3448 27.946 23.6403 28.1193 22.859 28.1193C22.0749 28.1193 21.369 27.9446 20.7411 27.5952C20.1133 27.2457 19.6147 26.7386 19.2454 26.0739C18.8789 25.4062 18.6957 24.5937 18.6957 23.6364C18.6957 22.6761 18.8789 21.8622 19.2454 21.1946C19.6147 20.527 20.1133 20.0199 20.7411 19.6733C21.369 19.3267 22.0749 19.1534 22.859 19.1534C23.6403 19.1534 24.3448 19.3267 24.9727 19.6733C25.6033 20.0199 26.1033 20.527 26.4727 21.1946C26.842 21.8622 27.0266 22.6761 27.0266 23.6364ZM24.8704 23.6364C24.8704 23.0682 24.7894 22.5881 24.6275 22.196C24.4684 21.804 24.2383 21.5071 23.9371 21.3054C23.6388 21.1037 23.2795 21.0028 22.859 21.0028C22.4414 21.0028 22.082 21.1037 21.7809 21.3054C21.4798 21.5071 21.2482 21.804 21.0863 22.196C20.9272 22.5881 20.8477 23.0682 20.8477 23.6364C20.8477 24.2045 20.9272 24.6847 21.0863 25.0767C21.2482 25.4687 21.4798 25.7656 21.7809 25.9673C22.082 26.169 22.4414 26.2699 22.859 26.2699C23.2795 26.2699 23.6388 26.169 23.9371 25.9673C24.2383 25.7656 24.4684 25.4687 24.6275 25.0767C24.7894 24.6847 24.8704 24.2045 24.8704 23.6364ZM28.1005 29.5V28.4688L30.2013 26.8452C30.3462 26.7315 30.4741 26.6278 30.5849 26.5341C30.6957 26.4375 30.7823 26.3395 30.8448 26.2401C30.9102 26.1406 30.9428 26.0284 30.9428 25.9034C30.9428 25.7159 30.8633 25.5739 30.7042 25.4773C30.5479 25.3778 30.359 25.3281 30.1374 25.3281C29.8988 25.3281 29.707 25.3835 29.5621 25.4943C29.4173 25.6051 29.3448 25.7727 29.3448 25.9972H27.9684C27.9684 25.429 28.1729 24.9872 28.582 24.6719C28.994 24.3565 29.5181 24.1989 30.1545 24.1989C30.592 24.1989 30.9712 24.2741 31.2923 24.4247C31.6161 24.5753 31.8661 24.7784 32.0423 25.0341C32.2184 25.2898 32.3065 25.5739 32.3065 25.8864C32.3065 26.142 32.2525 26.3793 32.1445 26.598C32.0394 26.8168 31.8761 27.0284 31.6545 27.233C31.4357 27.4375 31.1545 27.6449 30.8107 27.8551L30.163 28.2812V28.3281H32.3363V29.5H28.1005ZM36.4155 28.1236C35.7308 28.1236 35.1399 27.9886 34.6428 27.7188C34.1484 27.446 33.7678 27.0582 33.5007 26.5554C33.2365 26.0497 33.1044 25.4489 33.1044 24.7528C33.1044 24.0767 33.2379 23.4858 33.505 22.9801C33.772 22.4716 34.1484 22.0767 34.6342 21.7955C35.12 21.5114 35.6925 21.3693 36.3516 21.3693C36.8175 21.3693 37.2436 21.4418 37.63 21.5866C38.0163 21.7315 38.3501 21.946 38.6314 22.2301C38.9126 22.5142 39.1314 22.8651 39.2876 23.2827C39.4439 23.6974 39.522 24.1733 39.522 24.7102V25.2301H33.8331V24.0199H37.5831C37.5803 23.7983 37.5277 23.6009 37.4254 23.4276C37.3232 23.2543 37.1825 23.1193 37.0036 23.0227C36.8274 22.9233 36.6243 22.8736 36.3942 22.8736C36.1612 22.8736 35.9524 22.9261 35.7678 23.0312C35.5831 23.1335 35.4368 23.2741 35.3288 23.4531C35.2209 23.6293 35.1641 23.8295 35.1584 24.054V25.2855C35.1584 25.5526 35.2109 25.7869 35.3161 25.9886C35.4212 26.1875 35.5703 26.3423 35.7635 26.4531C35.9567 26.5639 36.1868 26.6193 36.4538 26.6193C36.6385 26.6193 36.8061 26.5937 36.9567 26.5426C37.1072 26.4915 37.2365 26.4162 37.3445 26.3168C37.4524 26.2173 37.5334 26.0952 37.5874 25.9503L39.5007 26.0057C39.4212 26.4347 39.2464 26.8082 38.9766 27.1264C38.7095 27.4418 38.3587 27.6875 37.924 27.8636C37.4893 28.0369 36.9865 28.1236 36.4155 28.1236Z" fill="#2671D9"/>
</svg>
