<svg width="40" height="40" viewBox="0 0 40 40" fill="none" xmlns="http://www.w3.org/2000/svg">
<path fill-rule="evenodd" clip-rule="evenodd" d="M19.9999 14.8952C19.682 14.8952 19.3653 14.9003 19.0499 14.9104C18.7201 14.9209 18.4423 15.178 18.4011 15.5225C18.9304 15.4933 19.4634 15.4785 19.9999 15.4785C20.5364 15.4785 21.0695 15.4933 21.5988 15.5225C21.5575 15.178 21.2798 14.9209 20.95 14.9104C20.6345 14.9003 20.3178 14.8952 19.9999 14.8952ZM22.7708 15.6111C22.7705 14.6239 22.0046 13.7768 20.9873 13.7443C20.6594 13.7338 20.3303 13.7285 19.9999 13.7285C19.6696 13.7285 19.3404 13.7338 19.0126 13.7443C17.9953 13.7768 17.2294 14.6239 17.2291 15.6111C16.7142 15.6607 16.2033 15.7239 15.6967 15.8004C15.493 15.8311 15.2901 15.864 15.0879 15.8991C14.7704 15.9541 14.5577 16.256 14.6127 16.5734C14.6656 16.8788 14.9469 17.0872 15.2508 17.0538L15.8251 24.5198C15.9011 25.5075 16.7247 26.2702 17.7153 26.2702H22.2845C23.2752 26.2702 24.0988 25.5075 24.1748 24.5198L24.7491 17.0538C25.053 17.0872 25.3343 16.8788 25.3872 16.5734C25.4422 16.256 25.2294 15.9541 24.912 15.8991C24.7098 15.864 24.5068 15.8311 24.3032 15.8004C23.7966 15.7239 23.2856 15.6607 22.7708 15.6111ZM23.5925 16.8784C23.113 16.8156 22.6295 16.7653 22.1425 16.7276C21.4356 16.673 20.7211 16.6452 19.9999 16.6452C19.2788 16.6452 18.5643 16.673 17.8574 16.7276C17.3703 16.7653 16.8869 16.8156 16.4074 16.8784L16.9883 24.4303C17.0176 24.8102 17.3343 25.1035 17.7153 25.1035H22.2845C22.6655 25.1035 22.9823 24.8102 23.0115 24.4303L23.5925 16.8784ZM18.379 17.6664C18.7009 17.6541 18.9719 17.905 18.9843 18.2269L19.1862 23.4769C19.1986 23.7989 18.9476 24.0699 18.6257 24.0823C18.3038 24.0946 18.0328 23.8437 18.0204 23.5218L17.8185 18.2718C17.8061 17.9498 18.057 17.6788 18.379 17.6664ZM21.6209 17.6664C21.9428 17.6788 22.1938 17.9498 22.1814 18.2718L21.9795 23.5218C21.9671 23.8437 21.6961 24.0946 21.3741 24.0823C21.0522 24.0699 20.8013 23.7989 20.8137 23.4769L21.0156 18.2269C21.028 17.905 21.299 17.6541 21.6209 17.6664Z" fill="#C53830"/>
<rect x="0.5" y="0.5" width="39" height="39" rx="7.5" stroke="#C53830"/>
</svg>
