<svg width="50" height="50" viewBox="0 0 50 50" fill="none" xmlns="http://www.w3.org/2000/svg">
<rect width="50" height="50" rx="8" fill="#ECEFFF"/>
<path d="M29.1834 30.0452H28.9351C29.0927 30.317 29.1834 30.632 29.1834 30.9681V32.8754H30.1063V30.9681C30.1063 30.4592 29.6923 30.0452 29.1834 30.0452Z" fill="#2671D9"/>
<path d="M27.3378 30.0452H26.5962L27.3378 32.8754H28.2607V30.9681C28.2607 30.4592 27.8467 30.0452 27.3378 30.0452Z" fill="#2671D9"/>
<path d="M25.5203 25.9396L25.8706 27.2766H32.8749V25.4309H25.6898L25.5203 25.9396Z" fill="#2671D9"/>
<path d="M26.3543 29.1224H29.1834C30.2012 29.1224 31.0292 29.9504 31.0292 30.9681V32.8754H32.8749V28.1995H26.1124L26.3543 29.1224Z" fill="#2671D9"/>
<path d="M25.64 22.6622H17.8687L18.9506 25.9081L17.125 32.8754H26.3836L24.558 25.9081L25.64 22.6622Z" fill="#2671D9"/>
<path d="M32.875 17.125H25.4612C24.4419 17.125 23.6155 17.9514 23.6155 18.9707H31.0293C32.0486 18.9707 32.875 18.1444 32.875 17.125Z" fill="#2671D9"/>
<path d="M27.307 19.8936H19.8932C18.8739 19.8936 18.0475 20.72 18.0475 21.7394H25.4612C26.4806 21.7394 27.307 20.913 27.307 19.8936Z" fill="#2671D9"/>
</svg>
