<svg width="20" height="20" viewBox="0 0 20 20" fill="none" xmlns="http://www.w3.org/2000/svg">
<path fill-rule="evenodd" clip-rule="evenodd" d="M10.0007 4.58341C6.50355 4.58341 3.53398 6.85153 2.48689 9.9993C2.48628 10.0011 2.48628 10.0034 2.48689 10.0052C3.53529 13.1507 6.50372 15.4167 9.99924 15.4167C13.4964 15.4167 16.466 13.1486 17.513 10.0009C17.5137 9.99902 17.5137 9.99675 17.513 9.99492C16.4646 6.84942 13.4962 4.58341 10.0007 4.58341ZM0.905424 9.47324C2.17227 5.66484 5.76447 2.91675 10.0007 2.91675C14.235 2.91675 17.8258 5.66229 19.0942 9.46792C19.2087 9.81152 19.2088 10.1833 19.0945 10.5269C17.8277 14.3353 14.2355 17.0834 9.99924 17.0834C5.76498 17.0834 2.17415 14.3379 0.905736 10.5322C0.791212 10.1886 0.791103 9.81691 0.905424 9.47324ZM10 8.33341C9.07955 8.33341 8.33335 9.07961 8.33335 10.0001C8.33335 10.9206 9.07955 11.6667 10 11.6667C10.9205 11.6667 11.6667 10.9206 11.6667 10.0001C11.6667 9.07961 10.9205 8.33341 10 8.33341ZM6.66669 10.0001C6.66669 8.15913 8.15907 6.66675 10 6.66675C11.841 6.66675 13.3334 8.15913 13.3334 10.0001C13.3334 11.841 11.841 13.3334 10 13.3334C8.15907 13.3334 6.66669 11.841 6.66669 10.0001Z" fill="#7F7F80"/>
</svg>
