<svg width="32" height="32" viewBox="0 0 32 32" fill="none" xmlns="http://www.w3.org/2000/svg">
<circle cx="16" cy="16" r="16" fill="#0493EF" fill-opacity="0.1"/>
<path d="M21.3332 13.9587C21.3262 13.8975 21.3128 13.8371 21.2932 13.7787V13.7187C21.2611 13.6502 21.2184 13.5871 21.1665 13.532L17.1665 9.53203C17.1114 9.48018 17.0484 9.43742 16.9798 9.40536H16.9198C16.8521 9.36653 16.7773 9.34159 16.6998 9.33203H12.6665C12.1361 9.33203 11.6274 9.54275 11.2523 9.91782C10.8772 10.2929 10.6665 10.8016 10.6665 11.332V20.6654C10.6665 21.1958 10.8772 21.7045 11.2523 22.0796C11.6274 22.4547 12.1361 22.6654 12.6665 22.6654H19.3332C19.8636 22.6654 20.3723 22.4547 20.7474 22.0796C21.1225 21.7045 21.3332 21.1958 21.3332 20.6654V13.9987V13.9587ZM17.3332 11.6054L19.0598 13.332H17.9998C17.823 13.332 17.6535 13.2618 17.5284 13.1368C17.4034 13.0117 17.3332 12.8422 17.3332 12.6654V11.6054ZM19.9998 20.6654C19.9998 20.8422 19.9296 21.0117 19.8046 21.1368C19.6796 21.2618 19.51 21.332 19.3332 21.332H12.6665C12.4897 21.332 12.3201 21.2618 12.1951 21.1368C12.0701 21.0117 11.9998 20.8422 11.9998 20.6654V11.332C11.9998 11.1552 12.0701 10.9857 12.1951 10.8606C12.3201 10.7356 12.4897 10.6654 12.6665 10.6654H15.9998V12.6654C15.9998 13.1958 16.2106 13.7045 16.5856 14.0796C16.9607 14.4547 17.4694 14.6654 17.9998 14.6654H19.9998V20.6654Z" fill="#0D98F2"/>
</svg>
