<svg width="61" height="49" viewBox="0 0 61 49" fill="none" xmlns="http://www.w3.org/2000/svg">
<path d="M50.3067 12.6712C48.4719 8.45519 45.3054 4.95709 41.2923 2.71291C37.2793 0.468735 32.6411 -0.397721 28.0885 0.246321C23.5359 0.890362 19.3201 3.00937 16.087 6.27863C12.8539 9.5479 10.782 13.7871 10.1886 18.3465C7.32569 19.0322 4.81422 20.7453 3.13117 23.1607C1.44812 25.576 0.710717 28.5254 1.05899 31.4486C1.40725 34.3718 2.81694 37.0654 5.02035 39.0177C7.22375 40.97 10.0674 42.0452 13.0113 42.039C13.8077 42.039 14.5715 41.7226 15.1347 41.1595C15.6978 40.5963 16.0142 39.8326 16.0142 39.0361C16.0142 38.2397 15.6978 37.476 15.1347 36.9128C14.5715 36.3497 13.8077 36.0333 13.0113 36.0333C11.4185 36.0333 9.89094 35.4006 8.76465 34.2743C7.63837 33.148 7.00563 31.6204 7.00563 30.0276C7.00563 28.4348 7.63837 26.9072 8.76465 25.7809C9.89094 24.6547 11.4185 24.0219 13.0113 24.0219C13.8077 24.0219 14.5715 23.7056 15.1347 23.1424C15.6978 22.5793 16.0142 21.8155 16.0142 21.0191C16.0218 17.4675 17.2882 14.0337 19.5884 11.3276C21.8885 8.62157 25.0734 6.81847 28.5773 6.23869C32.0812 5.65891 35.6772 6.33999 38.7264 8.16092C41.7756 9.98185 44.0806 12.8247 45.2318 16.1845C45.4035 16.7005 45.712 17.1602 46.1246 17.5146C46.5371 17.8689 47.0381 18.1046 47.5741 18.1964C49.5742 18.5744 51.3873 19.6186 52.718 21.1588C54.0488 22.6991 54.8186 24.6446 54.9022 26.6784C54.9858 28.7121 54.3781 30.7143 53.1783 32.3585C51.9784 34.0028 50.2571 35.1922 48.2948 35.733C47.5222 35.9321 46.8605 36.4299 46.455 37.117C46.0495 37.804 45.9336 38.624 46.1327 39.3965C46.3318 40.169 46.8296 40.8308 47.5167 41.2362C48.2037 41.6417 49.0237 41.7576 49.7962 41.5585C52.9563 40.7235 55.7577 38.88 57.7747 36.308C59.7918 33.736 60.9145 30.576 60.9723 27.3078C61.03 24.0397 60.0197 20.842 58.0947 18.2004C56.1698 15.5587 53.4353 13.6174 50.3067 12.6712ZM33.1604 18.8871C32.8748 18.6137 32.5381 18.3994 32.1695 18.2565C31.4384 17.9561 30.6184 17.9561 29.8873 18.2565C29.5187 18.3994 29.182 18.6137 28.8964 18.8871L19.8878 27.8956C19.3224 28.461 19.0047 29.2279 19.0047 30.0276C19.0047 30.8273 19.3224 31.5942 19.8878 32.1596C20.4533 32.7251 21.2202 33.0427 22.0199 33.0427C22.8195 33.0427 23.5864 32.7251 24.1519 32.1596L28.0255 28.2559V45.0418C28.0255 45.8382 28.3419 46.602 28.9051 47.1652C29.4682 47.7283 30.232 48.0447 31.0284 48.0447C31.8248 48.0447 32.5886 47.7283 33.1517 47.1652C33.7149 46.602 34.0312 45.8382 34.0312 45.0418V28.2559L37.9049 32.1596C38.1841 32.4411 38.5162 32.6645 38.8821 32.8169C39.248 32.9694 39.6405 33.0479 40.0369 33.0479C40.4333 33.0479 40.8258 32.9694 41.1917 32.8169C41.5577 32.6645 41.8898 32.4411 42.1689 32.1596C42.4504 31.8805 42.6738 31.5484 42.8262 31.1824C42.9787 30.8165 43.0572 30.424 43.0572 30.0276C43.0572 29.6312 42.9787 29.2387 42.8262 28.8728C42.6738 28.5069 42.4504 28.1747 42.1689 27.8956L33.1604 18.8871Z" fill="#2671D9"/>
</svg>
