<svg width="16" height="16" viewBox="0 0 16 16" fill="none" xmlns="http://www.w3.org/2000/svg">
<path fill-rule="evenodd" clip-rule="evenodd" d="M7.00001 2.66665C4.60678 2.66665 2.66668 4.60675 2.66668 6.99998C2.66668 9.39321 4.60678 11.3333 7.00001 11.3333C8.19681 11.3333 9.27923 10.849 10.0641 10.0641C10.849 9.2792 11.3333 8.19678 11.3333 6.99998C11.3333 4.60675 9.39324 2.66665 7.00001 2.66665ZM1.33334 6.99998C1.33334 3.87037 3.8704 1.33331 7.00001 1.33331C10.1296 1.33331 12.6667 3.87037 12.6667 6.99998C12.6667 8.32428 12.2118 9.54324 11.4507 10.5078L14.4714 13.5286C14.7318 13.7889 14.7318 14.211 14.4714 14.4714C14.2111 14.7317 13.789 14.7317 13.5286 14.4714L10.5079 11.4506C9.54327 12.2117 8.32431 12.6666 7.00001 12.6666C3.8704 12.6666 1.33334 10.1296 1.33334 6.99998Z" fill="#2671D9"/>
</svg>
