<svg width="72" height="72" viewBox="0 0 72 72" fill="none" xmlns="http://www.w3.org/2000/svg">
<rect width="72" height="72" rx="36" fill="#108F65"/>
<path d="M20.6477 42V30.3636H25.0114C25.9053 30.3636 26.6553 30.5303 27.2614 30.8636C27.8712 31.197 28.3314 31.6553 28.642 32.2386C28.9564 32.8182 29.1136 33.4773 29.1136 34.2159C29.1136 34.9621 28.9564 35.625 28.642 36.2045C28.3277 36.7841 27.8636 37.2405 27.25 37.5739C26.6364 37.9034 25.8807 38.0682 24.983 38.0682H22.0909V36.3352H24.6989C25.2216 36.3352 25.6496 36.2443 25.983 36.0625C26.3163 35.8807 26.5625 35.6307 26.7216 35.3125C26.8845 34.9943 26.9659 34.6288 26.9659 34.2159C26.9659 33.803 26.8845 33.4394 26.7216 33.125C26.5625 32.8106 26.3144 32.5663 25.9773 32.392C25.6439 32.214 25.214 32.125 24.6875 32.125H22.7557V42H20.6477ZM30.9446 42V30.3636H38.5128V32.1307H33.0526V35.2898H38.1207V37.0568H33.0526V40.233H38.5582V42H30.9446ZM48.4588 34.0795C48.3641 33.7727 48.2334 33.4981 48.0668 33.2557C47.9039 33.0095 47.7069 32.7992 47.4759 32.625C47.2486 32.4508 46.9872 32.3201 46.6918 32.233C46.3963 32.142 46.0743 32.0966 45.7259 32.0966C45.1009 32.0966 44.544 32.2538 44.0554 32.5682C43.5668 32.8826 43.1823 33.3447 42.902 33.9545C42.6255 34.5606 42.4872 35.2992 42.4872 36.1705C42.4872 37.0492 42.6255 37.7936 42.902 38.4034C43.1785 39.0133 43.563 39.4773 44.0554 39.7955C44.5478 40.1098 45.1198 40.267 45.7713 40.267C46.3622 40.267 46.8736 40.1534 47.3054 39.9261C47.741 39.6989 48.0762 39.3769 48.3111 38.9602C48.5459 38.5398 48.6634 38.0473 48.6634 37.483L49.1406 37.5568H45.9815V35.9091H50.7031V37.3068C50.7031 38.303 50.491 39.1648 50.0668 39.892C49.6425 40.6193 49.0592 41.1799 48.3168 41.5739C47.5743 41.964 46.7221 42.1591 45.7599 42.1591C44.688 42.1591 43.7467 41.9186 42.9361 41.4375C42.1293 40.9527 41.4986 40.2652 41.044 39.375C40.5933 38.4811 40.3679 37.4205 40.3679 36.1932C40.3679 35.2538 40.5005 34.4148 40.7656 33.6761C41.0346 32.9375 41.4096 32.3106 41.8906 31.7955C42.3717 31.2765 42.9361 30.8826 43.5838 30.6136C44.2315 30.3409 44.9361 30.2045 45.6974 30.2045C46.3414 30.2045 46.9418 30.2992 47.4986 30.4886C48.0554 30.6742 48.5497 30.9394 48.9815 31.2841C49.4171 31.6288 49.7751 32.0379 50.0554 32.5114C50.3357 32.9848 50.5194 33.5076 50.6065 34.0795H48.4588Z" fill="white"/>
</svg>
