<svg width="72" height="72" viewBox="0 0 72 72" fill="none" xmlns="http://www.w3.org/2000/svg">
<rect width="72" height="72" rx="36" fill="#FFAA00"/>
<path d="M28.5 37.25H23.5C22.75 37.25 22.25 37.75 22.25 38.5V48.5C22.25 49.25 22.75 49.75 23.5 49.75H28.5C29.25 49.75 29.75 49.25 29.75 48.5V38.5C29.75 37.75 29.25 37.25 28.5 37.25ZM48.5 32.25H43.5C42.75 32.25 42.25 32.75 42.25 33.5V48.5C42.25 49.25 42.75 49.75 43.5 49.75H48.5C49.25 49.75 49.75 49.25 49.75 48.5V33.5C49.75 32.75 49.25 32.25 48.5 32.25ZM38.5 22.25H33.5C32.75 22.25 32.25 22.75 32.25 23.5V48.5C32.25 49.25 32.75 49.75 33.5 49.75H38.5C39.25 49.75 39.75 49.25 39.75 48.5V23.5C39.75 22.75 39.25 22.25 38.5 22.25Z" fill="white"/>
</svg>
