<svg width="72" height="72" viewBox="0 0 72 72" fill="none" xmlns="http://www.w3.org/2000/svg">
<rect width="72" height="72" rx="36" fill="#2671D9"/>
<path d="M43.9685 45.6096H43.4955C43.7957 46.1271 43.9685 46.7273 43.9685 47.3674V51.0003H45.7263V47.3674C45.7263 46.3981 44.9378 45.6096 43.9685 45.6096Z" fill="white"/>
<path d="M40.453 45.6096H39.0404L40.453 51.0003H42.2108V47.3674C42.2108 46.3981 41.4223 45.6096 40.453 45.6096Z" fill="white"/>
<path d="M36.991 37.7892L37.6584 40.336H50.9999V36.8203H37.314L36.991 37.7892Z" fill="white"/>
<path d="M38.5796 43.8517H43.9685C45.9071 43.8517 47.4842 45.4288 47.4842 47.3674V51.0003H51V42.0938H38.119L38.5796 43.8517Z" fill="white"/>
<path d="M37.2191 31.5467H22.4165L24.4774 37.7292L21 51.0003H38.6356L35.1582 37.7292L37.2191 31.5467Z" fill="white"/>
<path d="M51.0001 20.9995H36.8786C34.9369 20.9995 33.3629 22.5736 33.3629 24.5152H47.4844C49.426 24.5152 51.0001 22.9412 51.0001 20.9995Z" fill="white"/>
<path d="M40.3943 26.2731H26.2728C24.3312 26.2731 22.7571 27.8471 22.7571 29.7888H36.8786C38.8203 29.7888 40.3943 28.2148 40.3943 26.2731Z" fill="white"/>
</svg>
