<svg width="72" height="72" viewBox="0 0 72 72" fill="none" xmlns="http://www.w3.org/2000/svg">
<rect width="72" height="72" rx="36" fill="#FF5656"/>
<path d="M35.608 34.2898H33.483C33.4223 33.9413 33.3106 33.6326 33.1477 33.3636C32.9848 33.0909 32.7822 32.8598 32.5398 32.6705C32.2973 32.4811 32.0208 32.339 31.7102 32.2443C31.4034 32.1458 31.072 32.0966 30.7159 32.0966C30.0833 32.0966 29.5227 32.2557 29.0341 32.5739C28.5455 32.8883 28.1629 33.3504 27.8864 33.9602C27.6098 34.5663 27.4716 35.3068 27.4716 36.1818C27.4716 37.072 27.6098 37.822 27.8864 38.4318C28.1667 39.0379 28.5492 39.4962 29.0341 39.8068C29.5227 40.1136 30.0814 40.267 30.7102 40.267C31.0587 40.267 31.3845 40.2216 31.6875 40.1307C31.9943 40.036 32.2689 39.8977 32.5114 39.7159C32.7576 39.5341 32.964 39.3106 33.1307 39.0455C33.3011 38.7803 33.4186 38.4773 33.483 38.1364L35.608 38.1477C35.5284 38.7008 35.3561 39.2197 35.0909 39.7045C34.8295 40.1894 34.4867 40.6174 34.0625 40.9886C33.6383 41.3561 33.142 41.6439 32.5739 41.8523C32.0057 42.0568 31.375 42.1591 30.6818 42.1591C29.6591 42.1591 28.7462 41.9223 27.9432 41.4489C27.1402 40.9754 26.5076 40.2917 26.0455 39.3977C25.5833 38.5038 25.3523 37.4318 25.3523 36.1818C25.3523 34.928 25.5852 33.8561 26.0511 32.9659C26.517 32.072 27.1515 31.3883 27.9545 30.9148C28.7576 30.4413 29.6667 30.2045 30.6818 30.2045C31.3295 30.2045 31.9318 30.2955 32.4886 30.4773C33.0455 30.6591 33.5417 30.9261 33.9773 31.2784C34.4129 31.6269 34.7708 32.0549 35.0511 32.5625C35.3352 33.0663 35.5208 33.642 35.608 34.2898ZM37.027 32.1307V30.3636H46.3111V32.1307H42.7145V42H40.6236V32.1307H37.027Z" fill="white"/>
</svg>
