<svg width="48" height="48" viewBox="0 0 48 48" fill="none" xmlns="http://www.w3.org/2000/svg">
<circle cx="24" cy="24" r="24" fill="#F6F7FD"/>
<path d="M17.125 13.5C16.0895 13.5 15.25 14.3395 15.25 15.375V32.625C15.25 33.6605 16.0895 34.5 17.125 34.5H29.875C30.9105 34.5 31.75 33.6605 31.75 32.625V24.75C31.75 22.6789 30.0711 21 28 21H26.125C25.0895 21 24.25 20.1605 24.25 19.125V17.25C24.25 15.1789 22.5711 13.5 20.5 13.5H17.125Z" fill="#5394F0"/>
<path d="M24.4712 13.8159C25.268 14.7365 25.75 15.9369 25.75 17.25V19.125C25.75 19.3321 25.9179 19.5 26.125 19.5H28C29.3131 19.5 30.5135 19.982 31.4341 20.7788C30.5462 17.3799 27.8701 14.7038 24.4712 13.8159Z" fill="#5394F0"/>
</svg>
