<svg width="49" height="48" viewBox="0 0 49 48" fill="none" xmlns="http://www.w3.org/2000/svg">
<circle cx="24.5" cy="24" r="24" fill="#F6F7FD"/>
<path fill-rule="evenodd" clip-rule="evenodd" d="M21.25 18.75C21.25 16.6789 22.9289 15 25 15C27.0711 15 28.75 16.6789 28.75 18.75C28.75 20.8211 27.0711 22.5 25 22.5C22.9289 22.5 21.25 20.8211 21.25 18.75Z" fill="#B73EF0"/>
<path fill-rule="evenodd" clip-rule="evenodd" d="M28.75 21.75C28.75 20.0931 30.0931 18.75 31.75 18.75C33.4069 18.75 34.75 20.0931 34.75 21.75C34.75 23.4069 33.4069 24.75 31.75 24.75C30.0931 24.75 28.75 23.4069 28.75 21.75Z" fill="#B73EF0"/>
<path fill-rule="evenodd" clip-rule="evenodd" d="M15.25 21.75C15.25 20.0931 16.5931 18.75 18.25 18.75C19.9069 18.75 21.25 20.0931 21.25 21.75C21.25 23.4069 19.9069 24.75 18.25 24.75C16.5931 24.75 15.25 23.4069 15.25 21.75Z" fill="#B73EF0"/>
<path fill-rule="evenodd" clip-rule="evenodd" d="M19.3099 27.1175C20.5078 25.2444 22.6083 24 25 24C27.3919 24 29.4927 25.2447 30.6906 27.1182C31.5187 28.4134 31.877 29.9752 31.709 31.4979C31.6827 31.7359 31.5444 31.947 31.3368 32.0662C29.4694 33.1376 27.3051 33.75 25 33.75C22.6949 33.75 20.5306 33.1376 18.6632 32.0662C18.4556 31.947 18.3173 31.7359 18.291 31.4979C18.1229 29.9749 18.4814 28.4129 19.3099 27.1175Z" fill="#B73EF0"/>
<path d="M18.0823 26.2537C18.0702 26.2722 18.0583 26.2907 18.0464 26.3093C17.0809 27.8189 16.6391 29.6167 16.7747 31.389C16.1667 31.2967 15.5767 31.1481 15.0104 30.9487L14.8955 30.9082C14.6858 30.8343 14.5392 30.6439 14.5216 30.4222L14.5119 30.3007C14.504 30.2014 14.5 30.1011 14.5 30C14.5 27.9851 16.089 26.3414 18.0823 26.2537Z" fill="#B73EF0"/>
<path d="M33.2256 31.389C33.3612 29.617 32.9196 27.8196 31.9545 26.3102C31.9424 26.2913 31.9303 26.2725 31.9181 26.2537C33.9111 26.3416 35.5 27.9853 35.5 30C35.5 30.1011 35.496 30.2014 35.4881 30.3007L35.4784 30.4222C35.4608 30.6439 35.3142 30.8343 35.1045 30.9082L34.9896 30.9487C34.4234 31.1481 33.8336 31.2966 33.2256 31.389Z" fill="#B73EF0"/>
</svg>
