<svg width="48" height="48" viewBox="0 0 48 48" fill="none" xmlns="http://www.w3.org/2000/svg">
<circle cx="24" cy="24" r="24" fill="#F6F7FD"/>
<path d="M8.53977 26.2827L8.5483 23.7983H8.83807L10.679 21.4545H13.0398L10.304 24.8125H9.75426L8.53977 26.2827ZM6.66051 28V19.2727H8.74432V28H6.66051ZM10.7259 28L9.01278 25.2812L10.3849 23.8026L13.1335 28H10.7259ZM21.7074 22.4347H19.5767C19.5483 22.2159 19.4901 22.0185 19.402 21.8423C19.3139 21.6662 19.1974 21.5156 19.0526 21.3906C18.9077 21.2656 18.7358 21.1705 18.5369 21.1051C18.3409 21.0369 18.1236 21.0028 17.8849 21.0028C17.4616 21.0028 17.0966 21.1065 16.7898 21.3139C16.4858 21.5213 16.2514 21.821 16.0866 22.2131C15.9247 22.6051 15.8438 23.0795 15.8438 23.6364C15.8438 24.2159 15.9261 24.7017 16.0909 25.0938C16.2585 25.483 16.4929 25.777 16.794 25.9759C17.098 26.1719 17.4574 26.2699 17.8722 26.2699C18.1051 26.2699 18.3168 26.2401 18.5071 26.1804C18.7003 26.1207 18.8693 26.0341 19.0142 25.9205C19.1619 25.804 19.2827 25.6634 19.3764 25.4986C19.473 25.331 19.5398 25.142 19.5767 24.9318L21.7074 24.9446C21.6705 25.331 21.5582 25.7116 21.3707 26.0866C21.1861 26.4616 20.9318 26.804 20.608 27.1136C20.2841 27.4205 19.8892 27.6648 19.4233 27.8466C18.9602 28.0284 18.429 28.1193 17.8295 28.1193C17.0398 28.1193 16.3324 27.946 15.7074 27.5994C15.0852 27.25 14.5938 26.7415 14.233 26.0739C13.8722 25.4062 13.6918 24.5937 13.6918 23.6364C13.6918 22.6761 13.875 21.8622 14.2415 21.1946C14.608 20.527 15.1037 20.0199 15.7287 19.6733C16.3537 19.3267 17.054 19.1534 17.8295 19.1534C18.358 19.1534 18.8466 19.2273 19.2955 19.375C19.7443 19.5199 20.1392 19.733 20.4801 20.0142C20.821 20.2926 21.098 20.6349 21.3111 21.0412C21.5241 21.4474 21.6562 21.9119 21.7074 22.4347ZM31.1516 23.6364C31.1516 24.5966 30.967 25.4105 30.5977 26.0781C30.2283 26.7457 29.7283 27.2528 29.0977 27.5994C28.4698 27.946 27.7653 28.1193 26.984 28.1193C26.1999 28.1193 25.494 27.9446 24.8661 27.5952C24.2383 27.2457 23.7397 26.7386 23.3704 26.0739C23.0039 25.4062 22.8207 24.5937 22.8207 23.6364C22.8207 22.6761 23.0039 21.8622 23.3704 21.1946C23.7397 20.527 24.2383 20.0199 24.8661 19.6733C25.494 19.3267 26.1999 19.1534 26.984 19.1534C27.7653 19.1534 28.4698 19.3267 29.0977 19.6733C29.7283 20.0199 30.2283 20.527 30.5977 21.1946C30.967 21.8622 31.1516 22.6761 31.1516 23.6364ZM28.9954 23.6364C28.9954 23.0682 28.9144 22.5881 28.7525 22.196C28.5934 21.804 28.3633 21.5071 28.0621 21.3054C27.7638 21.1037 27.4045 21.0028 26.984 21.0028C26.5664 21.0028 26.207 21.1037 25.9059 21.3054C25.6048 21.5071 25.3732 21.804 25.2113 22.196C25.0522 22.5881 24.9727 23.0682 24.9727 23.6364C24.9727 24.2045 25.0522 24.6847 25.2113 25.0767C25.3732 25.4687 25.6048 25.7656 25.9059 25.9673C26.207 26.169 26.5664 26.2699 26.984 26.2699C27.4045 26.2699 27.7638 26.169 28.0621 25.9673C28.3633 25.7656 28.5934 25.4687 28.7525 25.0767C28.9144 24.6847 28.9954 24.2045 28.9954 23.6364ZM32.2255 29.5V28.4688L34.3263 26.8452C34.4712 26.7315 34.5991 26.6278 34.7099 26.5341C34.8207 26.4375 34.9073 26.3395 34.9698 26.2401C35.0352 26.1406 35.0678 26.0284 35.0678 25.9034C35.0678 25.7159 34.9883 25.5739 34.8292 25.4773C34.6729 25.3778 34.484 25.3281 34.2624 25.3281C34.0238 25.3281 33.832 25.3835 33.6871 25.4943C33.5423 25.6051 33.4698 25.7727 33.4698 25.9972H32.0934C32.0934 25.429 32.2979 24.9872 32.707 24.6719C33.119 24.3565 33.6431 24.1989 34.2795 24.1989C34.717 24.1989 35.0962 24.2741 35.4173 24.4247C35.7411 24.5753 35.9911 24.7784 36.1673 25.0341C36.3434 25.2898 36.4315 25.5739 36.4315 25.8864C36.4315 26.142 36.3775 26.3793 36.2695 26.598C36.1644 26.8168 36.0011 27.0284 35.7795 27.233C35.5607 27.4375 35.2795 27.6449 34.9357 27.8551L34.288 28.2812V28.3281H36.4613V29.5H32.2255ZM40.5405 28.1236C39.8558 28.1236 39.2649 27.9886 38.7678 27.7188C38.2734 27.446 37.8928 27.0582 37.6257 26.5554C37.3615 26.0497 37.2294 25.4489 37.2294 24.7528C37.2294 24.0767 37.3629 23.4858 37.63 22.9801C37.897 22.4716 38.2734 22.0767 38.7592 21.7955C39.245 21.5114 39.8175 21.3693 40.4766 21.3693C40.9425 21.3693 41.3686 21.4418 41.755 21.5866C42.1413 21.7315 42.4751 21.946 42.7564 22.2301C43.0376 22.5142 43.2564 22.8651 43.4126 23.2827C43.5689 23.6974 43.647 24.1733 43.647 24.7102V25.2301H37.9581V24.0199H41.7081C41.7053 23.7983 41.6527 23.6009 41.5504 23.4276C41.4482 23.2543 41.3075 23.1193 41.1286 23.0227C40.9524 22.9233 40.7493 22.8736 40.5192 22.8736C40.2862 22.8736 40.0774 22.9261 39.8928 23.0312C39.7081 23.1335 39.5618 23.2741 39.4538 23.4531C39.3459 23.6293 39.2891 23.8295 39.2834 24.054V25.2855C39.2834 25.5526 39.3359 25.7869 39.4411 25.9886C39.5462 26.1875 39.6953 26.3423 39.8885 26.4531C40.0817 26.5639 40.3118 26.6193 40.5788 26.6193C40.7635 26.6193 40.9311 26.5937 41.0817 26.5426C41.2322 26.4915 41.3615 26.4162 41.4695 26.3168C41.5774 26.2173 41.6584 26.0952 41.7124 25.9503L43.6257 26.0057C43.5462 26.4347 43.3714 26.8082 43.1016 27.1264C42.8345 27.4418 42.4837 27.6875 42.049 27.8636C41.6143 28.0369 41.1115 28.1236 40.5405 28.1236Z" fill="#FFAA00"/>
</svg>
