<svg width="22" height="22" viewBox="0 0 22 22" fill="none" xmlns="http://www.w3.org/2000/svg">
<path fill-rule="evenodd" clip-rule="evenodd" d="M10.9997 3.66536C6.94959 3.66536 3.66634 6.94861 3.66634 10.9987C3.66634 15.0488 6.94959 18.332 10.9997 18.332C15.0498 18.332 18.333 15.0488 18.333 10.9987C18.333 6.94861 15.0498 3.66536 10.9997 3.66536ZM1.83301 10.9987C1.83301 5.93609 5.93706 1.83203 10.9997 1.83203C16.0623 1.83203 20.1663 5.93609 20.1663 10.9987C20.1663 16.0613 16.0623 20.1654 10.9997 20.1654C5.93706 20.1654 1.83301 16.0613 1.83301 10.9987ZM10.9997 7.33203C11.5059 7.33203 11.9163 7.74244 11.9163 8.2487V11.6862C11.9163 12.1925 11.5059 12.6029 10.9997 12.6029C10.4934 12.6029 10.083 12.1925 10.083 11.6862V8.2487C10.083 7.74244 10.4934 7.33203 10.9997 7.33203ZM10.083 14.4362C10.083 13.9299 10.4934 13.5195 10.9997 13.5195H11.0065C11.5128 13.5195 11.9232 13.9299 11.9232 14.4362V14.4431C11.9232 14.9493 11.5128 15.3597 11.0065 15.3597H10.9997C10.4934 15.3597 10.083 14.9493 10.083 14.4431V14.4362Z" fill="#1D55D7"/>
</svg>
