<svg width="48" height="48" viewBox="0 0 48 48" fill="none" xmlns="http://www.w3.org/2000/svg">
<circle cx="24" cy="24" r="24" fill="#F6F7FD"/>
<path fill-rule="evenodd" clip-rule="evenodd" d="M26.6152 13.595C26.9165 13.7629 27.0643 14.1146 26.9736 14.4474L24.982 21.75H32.25C32.5487 21.75 32.8189 21.9272 32.9379 22.2011C33.0569 22.475 33.0021 22.7934 32.7983 23.0118L22.2983 34.2618C22.063 34.5139 21.686 34.573 21.3848 34.4051C21.0836 34.2372 20.9357 33.8854 21.0264 33.5527L23.0181 26.25H15.75C15.4514 26.25 15.1812 26.0728 15.0622 25.7989C14.9431 25.525 14.998 25.2066 15.2017 24.9883L25.7017 13.7383C25.937 13.4862 26.314 13.427 26.6152 13.595Z" fill="#FFAA00"/>
</svg>
