<svg width="49" height="48" viewBox="0 0 49 48" fill="none" xmlns="http://www.w3.org/2000/svg">
<circle cx="24.5" cy="24" r="24" fill="#F6F7FD"/>
<path d="M9.66051 19.2727H12.2727L14.4886 24.6761H14.5909L16.8068 19.2727H19.419V28H17.3651V22.6392H17.2926L15.196 27.9446H13.8835L11.7869 22.6094H11.7145V28H9.66051V19.2727ZM22.8271 28L20.2873 19.2727H22.6183L23.935 24.9915H24.0075L25.5117 19.2727H27.4123L28.9165 25.0043H28.989L30.31 19.2727H32.6367L30.1012 28H28.0685L26.4961 22.7074H26.4279L24.8555 28H22.8271ZM35.592 24.267V28H33.5082V19.2727H35.5238V22.6562H35.5962C35.744 22.2528 35.9854 21.9375 36.3207 21.7102C36.6587 21.483 37.0721 21.3693 37.5607 21.3693C38.021 21.3693 38.4215 21.4716 38.7624 21.6761C39.1033 21.8778 39.3675 22.1634 39.555 22.5327C39.7454 22.902 39.8391 23.3338 39.8363 23.8281V28H37.7525V24.2372C37.7553 23.8736 37.6644 23.5895 37.4798 23.3849C37.2951 23.1804 37.0352 23.0781 36.6999 23.0781C36.4812 23.0781 36.288 23.1264 36.1204 23.223C35.9556 23.3168 35.8263 23.4517 35.7326 23.6278C35.6417 23.804 35.5948 24.017 35.592 24.267Z" fill="#FFAA00"/>
</svg>
