<svg width="49" height="48" viewBox="0 0 49 48" fill="none" xmlns="http://www.w3.org/2000/svg">
<circle cx="24.5" cy="24" r="24" fill="#EDF7F2"/>
<path d="M7.53977 26.2827L7.5483 23.7983H7.83807L9.67898 21.4545H12.0398L9.30398 24.8125H8.75426L7.53977 26.2827ZM5.66051 28V19.2727H7.74432V28H5.66051ZM9.72585 28L8.01278 25.2812L9.38494 23.8026L12.1335 28H9.72585ZM20.7074 22.4347H18.5767C18.5483 22.2159 18.4901 22.0185 18.402 21.8423C18.3139 21.6662 18.1974 21.5156 18.0526 21.3906C17.9077 21.2656 17.7358 21.1705 17.5369 21.1051C17.3409 21.0369 17.1236 21.0028 16.8849 21.0028C16.4616 21.0028 16.0966 21.1065 15.7898 21.3139C15.4858 21.5213 15.2514 21.821 15.0866 22.2131C14.9247 22.6051 14.8438 23.0795 14.8438 23.6364C14.8438 24.2159 14.9261 24.7017 15.0909 25.0938C15.2585 25.483 15.4929 25.777 15.794 25.9759C16.098 26.1719 16.4574 26.2699 16.8722 26.2699C17.1051 26.2699 17.3168 26.2401 17.5071 26.1804C17.7003 26.1207 17.8693 26.0341 18.0142 25.9205C18.1619 25.804 18.2827 25.6634 18.3764 25.4986C18.473 25.331 18.5398 25.142 18.5767 24.9318L20.7074 24.9446C20.6705 25.331 20.5582 25.7116 20.3707 26.0866C20.1861 26.4616 19.9318 26.804 19.608 27.1136C19.2841 27.4205 18.8892 27.6648 18.4233 27.8466C17.9602 28.0284 17.429 28.1193 16.8295 28.1193C16.0398 28.1193 15.3324 27.946 14.7074 27.5994C14.0852 27.25 13.5938 26.7415 13.233 26.0739C12.8722 25.4062 12.6918 24.5937 12.6918 23.6364C12.6918 22.6761 12.875 21.8622 13.2415 21.1946C13.608 20.527 14.1037 20.0199 14.7287 19.6733C15.3537 19.3267 16.054 19.1534 16.8295 19.1534C17.358 19.1534 17.8466 19.2273 18.2955 19.375C18.7443 19.5199 19.1392 19.733 19.4801 20.0142C19.821 20.2926 20.098 20.6349 20.3111 21.0412C20.5241 21.4474 20.6562 21.9119 20.7074 22.4347ZM30.1516 23.6364C30.1516 24.5966 29.967 25.4105 29.5977 26.0781C29.2283 26.7457 28.7283 27.2528 28.0977 27.5994C27.4698 27.946 26.7653 28.1193 25.984 28.1193C25.1999 28.1193 24.494 27.9446 23.8661 27.5952C23.2383 27.2457 22.7397 26.7386 22.3704 26.0739C22.0039 25.4062 21.8207 24.5937 21.8207 23.6364C21.8207 22.6761 22.0039 21.8622 22.3704 21.1946C22.7397 20.527 23.2383 20.0199 23.8661 19.6733C24.494 19.3267 25.1999 19.1534 25.984 19.1534C26.7653 19.1534 27.4698 19.3267 28.0977 19.6733C28.7283 20.0199 29.2283 20.527 29.5977 21.1946C29.967 21.8622 30.1516 22.6761 30.1516 23.6364ZM27.9954 23.6364C27.9954 23.0682 27.9144 22.5881 27.7525 22.196C27.5934 21.804 27.3633 21.5071 27.0621 21.3054C26.7638 21.1037 26.4045 21.0028 25.984 21.0028C25.5664 21.0028 25.207 21.1037 24.9059 21.3054C24.6048 21.5071 24.3732 21.804 24.2113 22.196C24.0522 22.5881 23.9727 23.0682 23.9727 23.6364C23.9727 24.2045 24.0522 24.6847 24.2113 25.0767C24.3732 25.4687 24.6048 25.7656 24.9059 25.9673C25.207 26.169 25.5664 26.2699 25.984 26.2699C26.4045 26.2699 26.7638 26.169 27.0621 25.9673C27.3633 25.7656 27.5934 25.4687 27.7525 25.0767C27.9144 24.6847 27.9954 24.2045 27.9954 23.6364ZM31.2255 29.5V28.4688L33.3263 26.8452C33.4712 26.7315 33.5991 26.6278 33.7099 26.5341C33.8207 26.4375 33.9073 26.3395 33.9698 26.2401C34.0352 26.1406 34.0678 26.0284 34.0678 25.9034C34.0678 25.7159 33.9883 25.5739 33.8292 25.4773C33.6729 25.3778 33.484 25.3281 33.2624 25.3281C33.0238 25.3281 32.832 25.3835 32.6871 25.4943C32.5423 25.6051 32.4698 25.7727 32.4698 25.9972H31.0934C31.0934 25.429 31.2979 24.9872 31.707 24.6719C32.119 24.3565 32.6431 24.1989 33.2795 24.1989C33.717 24.1989 34.0962 24.2741 34.4173 24.4247C34.7411 24.5753 34.9911 24.7784 35.1673 25.0341C35.3434 25.2898 35.4315 25.5739 35.4315 25.8864C35.4315 26.142 35.3775 26.3793 35.2695 26.598C35.1644 26.8168 35.0011 27.0284 34.7795 27.233C34.5607 27.4375 34.2795 27.6449 33.9357 27.8551L33.288 28.2812V28.3281H35.4613V29.5H31.2255ZM39.5405 28.1236C38.8558 28.1236 38.2649 27.9886 37.7678 27.7188C37.2734 27.446 36.8928 27.0582 36.6257 26.5554C36.3615 26.0497 36.2294 25.4489 36.2294 24.7528C36.2294 24.0767 36.3629 23.4858 36.63 22.9801C36.897 22.4716 37.2734 22.0767 37.7592 21.7955C38.245 21.5114 38.8175 21.3693 39.4766 21.3693C39.9425 21.3693 40.3686 21.4418 40.755 21.5866C41.1413 21.7315 41.4751 21.946 41.7564 22.2301C42.0376 22.5142 42.2564 22.8651 42.4126 23.2827C42.5689 23.6974 42.647 24.1733 42.647 24.7102V25.2301H36.9581V24.0199H40.7081C40.7053 23.7983 40.6527 23.6009 40.5504 23.4276C40.4482 23.2543 40.3075 23.1193 40.1286 23.0227C39.9524 22.9233 39.7493 22.8736 39.5192 22.8736C39.2862 22.8736 39.0774 22.9261 38.8928 23.0312C38.7081 23.1335 38.5618 23.2741 38.4538 23.4531C38.3459 23.6293 38.2891 23.8295 38.2834 24.054V25.2855C38.2834 25.5526 38.3359 25.7869 38.4411 25.9886C38.5462 26.1875 38.6953 26.3423 38.8885 26.4531C39.0817 26.5639 39.3118 26.6193 39.5788 26.6193C39.7635 26.6193 39.9311 26.5937 40.0817 26.5426C40.2322 26.4915 40.3615 26.4162 40.4695 26.3168C40.5774 26.2173 40.6584 26.0952 40.7124 25.9503L42.6257 26.0057C42.5462 26.4347 42.3714 26.8082 42.1016 27.1264C41.8345 27.4418 41.4837 27.6875 41.049 27.8636C40.6143 28.0369 40.1115 28.1236 39.5405 28.1236Z" fill="#397E5D"/>
</svg>
