<svg width="68" height="68" viewBox="0 0 68 68" fill="none" xmlns="http://www.w3.org/2000/svg">
<g opacity="0.5">
<circle cx="26" cy="26" r="42" fill="#B7CAF5"/>
<path fill-rule="evenodd" clip-rule="evenodd" d="M28.5257 10.5496C27.4033 8.60411 24.5954 8.60411 23.473 10.5496L6.31289 40.2938C5.1911 42.2382 6.59443 44.668 8.83927 44.668H43.1595C45.4043 44.668 46.8076 42.2383 45.6858 40.2938L28.5257 10.5496ZM19.4308 8.2176C22.3491 3.15924 29.6497 3.15924 32.5679 8.2176L49.728 37.9618C52.6447 43.0173 48.996 49.3347 43.1595 49.3347H8.83927C3.00269 49.3347 -0.645972 43.0173 2.27069 37.9618L19.4308 8.2176ZM25.9994 20.168C27.288 20.168 28.3327 21.2127 28.3327 22.5013V31.2513C28.3327 32.54 27.288 33.5847 25.9994 33.5847C24.7107 33.5847 23.666 32.54 23.666 31.2513V22.5013C23.666 21.2127 24.7107 20.168 25.9994 20.168ZM23.666 38.2513C23.666 36.9627 24.7107 35.918 25.9994 35.918H26.0169C27.3055 35.918 28.3502 36.9627 28.3502 38.2513V38.2688C28.3502 39.5575 27.3055 40.6022 26.0169 40.6022H25.9994C24.7107 40.6022 23.666 39.5575 23.666 38.2688V38.2513Z" fill="white"/>
</g>
</svg>
