<svg width="68" height="68" viewBox="0 0 68 68" fill="none" xmlns="http://www.w3.org/2000/svg">
<g opacity="0.5">
<circle cx="26" cy="26" r="42" fill="#EFC0BD"/>
<path fill-rule="evenodd" clip-rule="evenodd" d="M28.5262 10.5482C27.4038 8.60265 24.5959 8.60265 23.4735 10.5482L6.31338 40.2923C5.19159 42.2368 6.59492 44.6665 8.83976 44.6665H43.16C45.4048 44.6665 46.8081 42.2368 45.6863 40.2923L28.5262 10.5482ZM19.4313 8.21614C22.3496 3.15777 29.6501 3.15777 32.5684 8.21613L49.7285 37.9603C52.6452 43.0159 48.9965 49.3332 43.16 49.3332H8.83976C3.00318 49.3332 -0.645484 43.0159 2.27118 37.9603L19.4313 8.21614ZM25.9999 20.1665C27.2885 20.1665 28.3332 21.2112 28.3332 22.4999V31.2499C28.3332 32.5385 27.2885 33.5832 25.9999 33.5832C24.7112 33.5832 23.6665 32.5385 23.6665 31.2499V22.4999C23.6665 21.2112 24.7112 20.1665 25.9999 20.1665ZM23.6665 38.2499C23.6665 36.9612 24.7112 35.9165 25.9999 35.9165H26.0174C27.306 35.9165 28.3507 36.9612 28.3507 38.2499V38.2674C28.3507 39.556 27.306 40.6007 26.0174 40.6007H25.9999C24.7112 40.6007 23.6665 39.556 23.6665 38.2674V38.2499Z" fill="white"/>
</g>
</svg>
