<svg width="49" height="48" viewBox="0 0 49 48" fill="none" xmlns="http://www.w3.org/2000/svg">
<circle cx="24.5" cy="24" r="24" fill="#F6F7FD"/>
<path d="M19.5398 26.2827L19.5483 23.7983H19.8381L21.679 21.4545H24.0398L21.304 24.8125H20.7543L19.5398 26.2827ZM17.6605 28V19.2727H19.7443V28H17.6605ZM21.7259 28L20.0128 25.2812L21.3849 23.8026L24.1335 28H21.7259ZM27.5671 30.5909C26.945 30.5909 26.4123 30.5043 25.9691 30.331C25.5259 30.1577 25.1779 29.9205 24.9251 29.6193C24.6722 29.3182 24.5202 28.9773 24.4691 28.5966L26.4421 28.4858C26.479 28.6193 26.5472 28.7358 26.6467 28.8352C26.7489 28.9347 26.881 29.0114 27.043 29.0653C27.2077 29.1193 27.4009 29.1463 27.6225 29.1463C27.9719 29.1463 28.2603 29.0611 28.4876 28.8906C28.7177 28.723 28.8327 28.429 28.8327 28.0085V26.858H28.7603C28.6779 27.0597 28.5529 27.2401 28.3853 27.3991C28.2177 27.5582 28.0089 27.6832 27.7589 27.7741C27.5117 27.8651 27.2276 27.9105 26.9066 27.9105C26.4293 27.9105 25.9918 27.7997 25.5941 27.5781C25.1992 27.3537 24.8825 27.0071 24.6438 26.5384C24.408 26.0668 24.2901 25.4602 24.2901 24.7188C24.2901 23.9545 24.4123 23.3253 24.6566 22.831C24.9009 22.3338 25.2205 21.9659 25.6154 21.7273C26.0131 21.4886 26.4407 21.3693 26.8981 21.3693C27.2418 21.3693 27.5359 21.429 27.7802 21.5483C28.0273 21.6648 28.2305 21.8153 28.3896 22C28.5487 22.1847 28.6694 22.3764 28.7518 22.5753H28.8114V21.4545H30.8867V28.0256C30.8867 28.5795 30.7475 29.0469 30.4691 29.4276C30.1907 29.8082 29.8015 30.0966 29.3015 30.2926C28.8015 30.4915 28.2234 30.5909 27.5671 30.5909ZM27.631 26.3935C27.8839 26.3935 28.0998 26.3267 28.2788 26.1932C28.4577 26.0597 28.5955 25.8679 28.6921 25.6179C28.7887 25.3679 28.837 25.0682 28.837 24.7188C28.837 24.3636 28.7887 24.0582 28.6921 23.8026C28.5984 23.544 28.4606 23.3452 28.2788 23.206C28.0998 23.0668 27.8839 22.9972 27.631 22.9972C27.3725 22.9972 27.1538 23.0682 26.9748 23.2102C26.7958 23.3523 26.6594 23.5526 26.5657 23.8111C26.4748 24.0668 26.4293 24.3693 26.4293 24.7188C26.4293 25.0682 26.4762 25.3679 26.57 25.6179C26.6637 25.8679 26.7987 26.0597 26.9748 26.1932C27.1538 26.3267 27.3725 26.3935 27.631 26.3935Z" fill="#2671D9"/>
</svg>
