<svg width="49" height="48" viewBox="0 0 49 48" fill="none" xmlns="http://www.w3.org/2000/svg">
<circle cx="24.5" cy="24" r="24" fill="#F6F7FD"/>
<path d="M20.0398 26.2827L20.0483 23.7983H20.3381L22.179 21.4545H24.5398L21.804 24.8125H21.2543L20.0398 26.2827ZM18.1605 28V19.2727H20.2443V28H18.1605ZM22.2259 28L20.5128 25.2812L21.8849 23.8026L24.6335 28H22.2259ZM28.0671 30.5909C27.445 30.5909 26.9123 30.5043 26.4691 30.331C26.0259 30.1577 25.6779 29.9205 25.4251 29.6193C25.1722 29.3182 25.0202 28.9773 24.9691 28.5966L26.9421 28.4858C26.979 28.6193 27.0472 28.7358 27.1467 28.8352C27.2489 28.9347 27.381 29.0114 27.543 29.0653C27.7077 29.1193 27.9009 29.1463 28.1225 29.1463C28.4719 29.1463 28.7603 29.0611 28.9876 28.8906C29.2177 28.723 29.3327 28.429 29.3327 28.0085V26.858H29.2603C29.1779 27.0597 29.0529 27.2401 28.8853 27.3991C28.7177 27.5582 28.5089 27.6832 28.2589 27.7741C28.0117 27.8651 27.7276 27.9105 27.4066 27.9105C26.9293 27.9105 26.4918 27.7997 26.0941 27.5781C25.6992 27.3537 25.3825 27.0071 25.1438 26.5384C24.908 26.0668 24.7901 25.4602 24.7901 24.7188C24.7901 23.9545 24.9123 23.3253 25.1566 22.831C25.4009 22.3338 25.7205 21.9659 26.1154 21.7273C26.5131 21.4886 26.9407 21.3693 27.3981 21.3693C27.7418 21.3693 28.0359 21.429 28.2802 21.5483C28.5273 21.6648 28.7305 21.8153 28.8896 22C29.0487 22.1847 29.1694 22.3764 29.2518 22.5753H29.3114V21.4545H31.3867V28.0256C31.3867 28.5795 31.2475 29.0469 30.9691 29.4276C30.6907 29.8082 30.3015 30.0966 29.8015 30.2926C29.3015 30.4915 28.7234 30.5909 28.0671 30.5909ZM28.131 26.3935C28.3839 26.3935 28.5998 26.3267 28.7788 26.1932C28.9577 26.0597 29.0955 25.8679 29.1921 25.6179C29.2887 25.3679 29.337 25.0682 29.337 24.7188C29.337 24.3636 29.2887 24.0582 29.1921 23.8026C29.0984 23.544 28.9606 23.3452 28.7788 23.206C28.5998 23.0668 28.3839 22.9972 28.131 22.9972C27.8725 22.9972 27.6538 23.0682 27.4748 23.2102C27.2958 23.3523 27.1594 23.5526 27.0657 23.8111C26.9748 24.0668 26.9293 24.3693 26.9293 24.7188C26.9293 25.0682 26.9762 25.3679 27.07 25.6179C27.1637 25.8679 27.2987 26.0597 27.4748 26.1932C27.6538 26.3267 27.8725 26.3935 28.131 26.3935Z" fill="#FFAA00"/>
</svg>
