<svg width="49" height="48" viewBox="0 0 49 48" fill="none" xmlns="http://www.w3.org/2000/svg">
<circle cx="24.5" cy="24" r="24" fill="#F6F7FD"/>
<path d="M20.0881 19.2727V28H18.2983L14.8253 22.9631H14.7699V28H12.6605V19.2727H14.4759L17.9105 24.3011H17.983V19.2727H20.0881ZM21.2567 29.5V28.4688L23.3576 26.8452C23.5025 26.7315 23.6303 26.6278 23.7411 26.5341C23.8519 26.4375 23.9386 26.3395 24.0011 26.2401C24.0664 26.1406 24.0991 26.0284 24.0991 25.9034C24.0991 25.7159 24.0195 25.5739 23.8604 25.4773C23.7042 25.3778 23.5153 25.3281 23.2937 25.3281C23.055 25.3281 22.8633 25.3835 22.7184 25.4943C22.5735 25.6051 22.5011 25.7727 22.5011 25.9972H21.1246C21.1246 25.429 21.3292 24.9872 21.7383 24.6719C22.1502 24.3565 22.6744 24.1989 23.3107 24.1989C23.7482 24.1989 24.1275 24.2741 24.4485 24.4247C24.7724 24.5753 25.0224 24.7784 25.1985 25.0341C25.3746 25.2898 25.4627 25.5739 25.4627 25.8864C25.4627 26.142 25.4087 26.3793 25.3008 26.598C25.1957 26.8168 25.0323 27.0284 24.8107 27.233C24.592 27.4375 24.3107 27.6449 23.967 27.8551L23.3192 28.2812V28.3281H25.4925V29.5H21.2567ZM34.7493 23.6364C34.7493 24.5966 34.5646 25.4105 34.1953 26.0781C33.826 26.7457 33.326 27.2528 32.6953 27.5994C32.0675 27.946 31.3629 28.1193 30.5817 28.1193C29.7976 28.1193 29.0916 27.9446 28.4638 27.5952C27.8359 27.2457 27.3374 26.7386 26.968 26.0739C26.6016 25.4062 26.4183 24.5937 26.4183 23.6364C26.4183 22.6761 26.6016 21.8622 26.968 21.1946C27.3374 20.527 27.8359 20.0199 28.4638 19.6733C29.0916 19.3267 29.7976 19.1534 30.5817 19.1534C31.3629 19.1534 32.0675 19.3267 32.6953 19.6733C33.326 20.0199 33.826 20.527 34.1953 21.1946C34.5646 21.8622 34.7493 22.6761 34.7493 23.6364ZM32.593 23.6364C32.593 23.0682 32.5121 22.5881 32.3501 22.196C32.1911 21.804 31.9609 21.5071 31.6598 21.3054C31.3615 21.1037 31.0021 21.0028 30.5817 21.0028C30.1641 21.0028 29.8047 21.1037 29.5036 21.3054C29.2024 21.5071 28.9709 21.804 28.8089 22.196C28.6499 22.5881 28.5703 23.0682 28.5703 23.6364C28.5703 24.2045 28.6499 24.6847 28.8089 25.0767C28.9709 25.4687 29.2024 25.7656 29.5036 25.9673C29.8047 26.169 30.1641 26.2699 30.5817 26.2699C31.0021 26.2699 31.3615 26.169 31.6598 25.9673C31.9609 25.7656 32.1911 25.4687 32.3501 25.0767C32.5121 24.6847 32.593 24.2045 32.593 23.6364Z" fill="#C53830"/>
</svg>
