<svg width="48" height="48" viewBox="0 0 48 48" fill="none" xmlns="http://www.w3.org/2000/svg">
<circle cx="24" cy="24" r="24" fill="#F6F7FD"/>
<path d="M10.3551 21.4545V22.9886H6.22585V21.4545H10.3551ZM7.09091 19.8864H9.17472V25.9418C9.17472 26.0696 9.1946 26.1733 9.23438 26.2528C9.27699 26.3295 9.33807 26.3849 9.41761 26.419C9.49716 26.4503 9.59233 26.4659 9.70312 26.4659C9.78267 26.4659 9.86648 26.4588 9.95455 26.4446C10.0455 26.4276 10.1136 26.4134 10.1591 26.402L10.4744 27.9062C10.375 27.9347 10.2344 27.9702 10.0526 28.0128C9.87358 28.0554 9.65909 28.0824 9.40909 28.0938C8.92045 28.1165 8.50142 28.0597 8.15199 27.9233C7.8054 27.7841 7.53977 27.5682 7.35511 27.2756C7.1733 26.983 7.08523 26.6151 7.09091 26.1719V19.8864ZM19.3402 22.4347H17.2095C17.1811 22.2159 17.1229 22.0185 17.0348 21.8423C16.9467 21.6662 16.8303 21.5156 16.6854 21.3906C16.5405 21.2656 16.3686 21.1705 16.1697 21.1051C15.9737 21.0369 15.7564 21.0028 15.5178 21.0028C15.0945 21.0028 14.7294 21.1065 14.4226 21.3139C14.1186 21.5213 13.8842 21.821 13.7195 22.2131C13.5575 22.6051 13.4766 23.0795 13.4766 23.6364C13.4766 24.2159 13.5589 24.7017 13.7237 25.0938C13.8913 25.483 14.1257 25.777 14.4268 25.9759C14.7308 26.1719 15.0902 26.2699 15.505 26.2699C15.7379 26.2699 15.9496 26.2401 16.1399 26.1804C16.3331 26.1207 16.5021 26.0341 16.647 25.9205C16.7947 25.804 16.9155 25.6634 17.0092 25.4986C17.1058 25.331 17.1726 25.142 17.2095 24.9318L19.3402 24.9446C19.3033 25.331 19.1911 25.7116 19.0036 26.0866C18.8189 26.4616 18.5646 26.804 18.2408 27.1136C17.9169 27.4205 17.522 27.6648 17.0561 27.8466C16.593 28.0284 16.0618 28.1193 15.4624 28.1193C14.6726 28.1193 13.9652 27.946 13.3402 27.5994C12.718 27.25 12.2266 26.7415 11.8658 26.0739C11.505 25.4062 11.3246 24.5937 11.3246 23.6364C11.3246 22.6761 11.5078 21.8622 11.8743 21.1946C12.2408 20.527 12.7365 20.0199 13.3615 19.6733C13.9865 19.3267 14.6868 19.1534 15.4624 19.1534C15.9908 19.1534 16.4794 19.2273 16.9283 19.375C17.3771 19.5199 17.772 19.733 18.1129 20.0142C18.4538 20.2926 18.7308 20.6349 18.9439 21.0412C19.157 21.4474 19.2891 21.9119 19.3402 22.4347ZM28.7844 23.6364C28.7844 24.5966 28.5998 25.4105 28.2305 26.0781C27.8612 26.7457 27.3612 27.2528 26.7305 27.5994C26.1026 27.946 25.3981 28.1193 24.6168 28.1193C23.8327 28.1193 23.1268 27.9446 22.4989 27.5952C21.8711 27.2457 21.3725 26.7386 21.0032 26.0739C20.6367 25.4062 20.4535 24.5937 20.4535 23.6364C20.4535 22.6761 20.6367 21.8622 21.0032 21.1946C21.3725 20.527 21.8711 20.0199 22.4989 19.6733C23.1268 19.3267 23.8327 19.1534 24.6168 19.1534C25.3981 19.1534 26.1026 19.3267 26.7305 19.6733C27.3612 20.0199 27.8612 20.527 28.2305 21.1946C28.5998 21.8622 28.7844 22.6761 28.7844 23.6364ZM26.6282 23.6364C26.6282 23.0682 26.5472 22.5881 26.3853 22.196C26.2262 21.804 25.9961 21.5071 25.695 21.3054C25.3967 21.1037 25.0373 21.0028 24.6168 21.0028C24.1992 21.0028 23.8398 21.1037 23.5387 21.3054C23.2376 21.5071 23.006 21.804 22.8441 22.196C22.685 22.5881 22.6055 23.0682 22.6055 23.6364C22.6055 24.2045 22.685 24.6847 22.8441 25.0767C23.006 25.4687 23.2376 25.7656 23.5387 25.9673C23.8398 26.169 24.1992 26.2699 24.6168 26.2699C25.0373 26.2699 25.3967 26.169 25.695 25.9673C25.9961 25.7656 26.2262 25.4687 26.3853 25.0767C26.5472 24.6847 26.6282 24.2045 26.6282 23.6364ZM29.8583 29.5V28.4688L31.9592 26.8452C32.104 26.7315 32.2319 26.6278 32.3427 26.5341C32.4535 26.4375 32.5401 26.3395 32.6026 26.2401C32.668 26.1406 32.7006 26.0284 32.7006 25.9034C32.7006 25.7159 32.6211 25.5739 32.462 25.4773C32.3058 25.3778 32.1168 25.3281 31.8952 25.3281C31.6566 25.3281 31.4648 25.3835 31.32 25.4943C31.1751 25.6051 31.1026 25.7727 31.1026 25.9972H29.7262C29.7262 25.429 29.9308 24.9872 30.3398 24.6719C30.7518 24.3565 31.2759 24.1989 31.9123 24.1989C32.3498 24.1989 32.729 24.2741 33.0501 24.4247C33.3739 24.5753 33.6239 24.7784 33.8001 25.0341C33.9762 25.2898 34.0643 25.5739 34.0643 25.8864C34.0643 26.142 34.0103 26.3793 33.9023 26.598C33.7972 26.8168 33.6339 27.0284 33.4123 27.233C33.1935 27.4375 32.9123 27.6449 32.5685 27.8551L31.9208 28.2812V28.3281H34.0941V29.5H29.8583ZM38.1733 28.1236C37.4886 28.1236 36.8977 27.9886 36.4006 27.7188C35.9063 27.446 35.5256 27.0582 35.2585 26.5554C34.9943 26.0497 34.8622 25.4489 34.8622 24.7528C34.8622 24.0767 34.9957 23.4858 35.2628 22.9801C35.5298 22.4716 35.9062 22.0767 36.392 21.7955C36.8778 21.5114 37.4503 21.3693 38.1094 21.3693C38.5753 21.3693 39.0014 21.4418 39.3878 21.5866C39.7741 21.7315 40.108 21.946 40.3892 22.2301C40.6705 22.5142 40.8892 22.8651 41.0455 23.2827C41.2017 23.6974 41.2798 24.1733 41.2798 24.7102V25.2301H35.5909V24.0199H39.3409C39.3381 23.7983 39.2855 23.6009 39.1832 23.4276C39.081 23.2543 38.9403 23.1193 38.7614 23.0227C38.5852 22.9233 38.3821 22.8736 38.152 22.8736C37.919 22.8736 37.7102 22.9261 37.5256 23.0312C37.3409 23.1335 37.1946 23.2741 37.0866 23.4531C36.9787 23.6293 36.9219 23.8295 36.9162 24.054V25.2855C36.9162 25.5526 36.9688 25.7869 37.0739 25.9886C37.179 26.1875 37.3281 26.3423 37.5213 26.4531C37.7145 26.5639 37.9446 26.6193 38.2116 26.6193C38.3963 26.6193 38.5639 26.5937 38.7145 26.5426C38.8651 26.4915 38.9943 26.4162 39.1023 26.3168C39.2102 26.2173 39.2912 26.0952 39.3452 25.9503L41.2585 26.0057C41.179 26.4347 41.0043 26.8082 40.7344 27.1264C40.4673 27.4418 40.1165 27.6875 39.6818 27.8636C39.2472 28.0369 38.7443 28.1236 38.1733 28.1236Z" fill="#C53830"/>
</svg>
