<svg width="49" height="48" viewBox="0 0 49 48" fill="none" xmlns="http://www.w3.org/2000/svg">
<circle cx="24.5" cy="24" r="24" fill="#F6F7FD"/>
<path d="M18.375 20.9858V19.2727H25.7514V20.9858H23.1051V28H21.0256V20.9858H18.375ZM29.2372 19.2727H31.3168V25.3068C31.3139 25.8722 31.179 26.3665 30.9119 26.7898C30.6449 27.2102 30.2756 27.5369 29.804 27.7699C29.3352 28.0028 28.7926 28.1193 28.1761 28.1193C27.6307 28.1193 27.1349 28.0241 26.6889 27.8338C26.2457 27.6435 25.892 27.348 25.6278 26.9474C25.3665 26.5469 25.2372 26.0341 25.2401 25.4091H27.3409C27.3494 25.6335 27.392 25.8253 27.4688 25.9844C27.5483 26.1406 27.6577 26.2585 27.7969 26.3381C27.9361 26.4176 28.1023 26.4574 28.2955 26.4574C28.4972 26.4574 28.6676 26.4148 28.8068 26.3295C28.946 26.2415 29.0511 26.1122 29.1222 25.9418C29.196 25.7713 29.2344 25.5597 29.2372 25.3068V19.2727Z" fill="#FFAA00"/>
</svg>
