<svg width="48" height="48" viewBox="0 0 48 48" fill="none" xmlns="http://www.w3.org/2000/svg">
<circle cx="24" cy="24" r="24" fill="#F6F7FD"/>
<path d="M15.375 20.9858V19.2727H22.7514V20.9858H20.1051V28H18.0256V20.9858H15.375ZM31.6204 23.6364C31.6204 24.5966 31.4357 25.4105 31.0664 26.0781C30.6971 26.7457 30.1971 27.2528 29.5664 27.5994C28.9386 27.946 28.234 28.1193 27.4528 28.1193C26.6687 28.1193 25.9627 27.9446 25.3349 27.5952C24.707 27.2457 24.2085 26.7386 23.8391 26.0739C23.4727 25.4062 23.2894 24.5937 23.2894 23.6364C23.2894 22.6761 23.4727 21.8622 23.8391 21.1946C24.2085 20.527 24.707 20.0199 25.3349 19.6733C25.9627 19.3267 26.6687 19.1534 27.4528 19.1534C28.234 19.1534 28.9386 19.3267 29.5664 19.6733C30.1971 20.0199 30.6971 20.527 31.0664 21.1946C31.4357 21.8622 31.6204 22.6761 31.6204 23.6364ZM29.4641 23.6364C29.4641 23.0682 29.3832 22.5881 29.2212 22.196C29.0621 21.804 28.832 21.5071 28.5309 21.3054C28.2326 21.1037 27.8732 21.0028 27.4528 21.0028C27.0352 21.0028 26.6758 21.1037 26.3746 21.3054C26.0735 21.5071 25.842 21.804 25.68 22.196C25.521 22.5881 25.4414 23.0682 25.4414 23.6364C25.4414 24.2045 25.521 24.6847 25.68 25.0767C25.842 25.4687 26.0735 25.7656 26.3746 25.9673C26.6758 26.169 27.0352 26.2699 27.4528 26.2699C27.8732 26.2699 28.2326 26.169 28.5309 25.9673C28.832 25.7656 29.0621 25.4687 29.2212 25.0767C29.3832 24.6847 29.4641 24.2045 29.4641 23.6364Z" fill="#397E5D"/>
</svg>
