<svg width="20" height="20" viewBox="0 0 20 20" fill="none" xmlns="http://www.w3.org/2000/svg">
<path fill-rule="evenodd" clip-rule="evenodd" d="M10 2C7.23859 2 5.00001 4.23858 5.00001 7L4.99982 7.75C4.99982 7.74991 4.99982 7.75009 4.99982 7.75C4.99976 9.79005 4.38801 11.689 3.33877 13.2709C4.60342 13.6529 5.9142 13.929 7.26093 14.0887C8.15867 14.1952 9.07263 14.25 9.99982 14.25C10.9271 14.25 11.8412 14.1952 12.7391 14.0887C14.0857 13.9289 15.3963 13.6529 16.6609 13.2709C15.6116 11.6889 14.9998 9.79015 14.9998 7.75V7.04115L15 7C15 4.23858 12.7614 2 10 2ZM3.00002 6.99974C3.00016 3.13386 6.13411 0 10 0C13.866 0 17 3.13401 17 7L16.9998 7.04919V7.75C16.9998 9.80896 17.7763 11.6842 19.0541 13.1025C19.2761 13.349 19.3615 13.6894 19.282 14.0114C19.2026 14.3335 18.9686 14.5951 18.6575 14.71C17.1663 15.2605 15.6084 15.6728 13.9994 15.9316C13.9998 15.9544 14 15.9772 14 16C14 18.2091 12.2092 20 10 20C7.79088 20 6.00001 18.2091 6.00001 16C6.00001 15.9772 6.00021 15.9544 6.00059 15.9317C4.39149 15.6729 2.83345 15.2605 1.34218 14.71C1.03102 14.5951 0.797072 14.3335 0.717613 14.0114C0.638153 13.6894 0.723526 13.349 0.945527 13.1025C2.2233 11.6842 2.99982 9.80896 2.99982 7.75L3.00002 6.99974C3.00002 6.99982 3.00002 6.99965 3.00002 6.99974ZM8.00728 16.1717C8.09437 17.1959 8.95329 18 10 18C11.0468 18 11.9057 17.1959 11.9927 16.1717C11.3351 16.2236 10.6704 16.25 9.99982 16.25C9.32932 16.25 8.66481 16.2236 8.00728 16.1717Z" fill="#666666"/>
</svg>
