<svg width="16" height="16" viewBox="0 0 16 16" fill="none" xmlns="http://www.w3.org/2000/svg">
<path d="M3.61539 5.23077C3.29589 5.23077 2.98357 5.13603 2.71793 4.95853C2.45228 4.78103 2.24523 4.52874 2.12296 4.23357C2.0007 3.93839 1.96871 3.61359 2.03104 3.30024C2.09337 2.98689 2.24722 2.69905 2.47314 2.47314C2.69905 2.24722 2.98689 2.09337 3.30024 2.03104C3.61359 1.96871 3.93839 2.0007 4.23357 2.12296C4.52874 2.24523 4.78103 2.45228 4.95853 2.71793C5.13603 2.98357 5.23077 3.29589 5.23077 3.61539C5.23031 4.04367 5.05997 4.45428 4.75713 4.75713C4.45428 5.05997 4.04367 5.23031 3.61539 5.23077ZM8 5.23077C7.68051 5.23077 7.36819 5.13603 7.10254 4.95853C6.83689 4.78103 6.62984 4.52874 6.50758 4.23357C6.38532 3.93839 6.35333 3.61359 6.41566 3.30024C6.47799 2.98689 6.63184 2.69905 6.85775 2.47314C7.08367 2.24722 7.3715 2.09337 7.68485 2.03104C7.99821 1.96871 8.32301 2.0007 8.61818 2.12296C8.91335 2.24523 9.16564 2.45228 9.34314 2.71793C9.52064 2.98357 9.61539 3.29589 9.61539 3.61539C9.61493 4.04367 9.44459 4.45428 9.14174 4.75713C8.8389 5.05997 8.42829 5.23031 8 5.23077ZM12.3846 5.23077C12.0651 5.23077 11.7528 5.13603 11.4872 4.95853C11.2215 4.78103 11.0145 4.52874 10.8922 4.23357C10.7699 3.93839 10.7379 3.61359 10.8003 3.30024C10.8626 2.98689 11.0165 2.69905 11.2424 2.47314C11.4683 2.24722 11.7561 2.09337 12.0695 2.03104C12.3828 1.96871 12.7076 2.0007 13.0028 2.12296C13.298 2.24523 13.5503 2.45228 13.7278 2.71793C13.9053 2.98357 14 3.29589 14 3.61539C13.9995 4.04367 13.8292 4.45428 13.5264 4.75713C13.2235 5.05997 12.8129 5.23031 12.3846 5.23077ZM3.61539 9.61539C3.29589 9.61539 2.98357 9.52064 2.71793 9.34314C2.45228 9.16564 2.24523 8.91335 2.12296 8.61818C2.0007 8.32301 1.96871 7.99821 2.03104 7.68485C2.09337 7.3715 2.24722 7.08367 2.47314 6.85775C2.69905 6.63184 2.98689 6.47799 3.30024 6.41566C3.61359 6.35333 3.93839 6.38532 4.23357 6.50758C4.52874 6.62984 4.78103 6.83689 4.95853 7.10254C5.13603 7.36819 5.23077 7.68051 5.23077 8C5.23031 8.42829 5.05997 8.8389 4.75713 9.14174C4.45428 9.44459 4.04367 9.61493 3.61539 9.61539ZM8 9.61539C7.68051 9.61539 7.36819 9.52064 7.10254 9.34314C6.83689 9.16564 6.62984 8.91335 6.50758 8.61818C6.38532 8.32301 6.35333 7.99821 6.41566 7.68485C6.47799 7.3715 6.63184 7.08367 6.85775 6.85775C7.08367 6.63184 7.3715 6.47799 7.68485 6.41566C7.99821 6.35333 8.32301 6.38532 8.61818 6.50758C8.91335 6.62984 9.16564 6.83689 9.34314 7.10254C9.52064 7.36819 9.61539 7.68051 9.61539 8C9.61493 8.42829 9.44459 8.8389 9.14174 9.14174C8.8389 9.44459 8.42829 9.61493 8 9.61539ZM12.3846 9.61539C12.0651 9.61539 11.7528 9.52064 11.4872 9.34314C11.2215 9.16564 11.0145 8.91335 10.8922 8.61818C10.7699 8.32301 10.7379 7.99821 10.8003 7.68485C10.8626 7.3715 11.0165 7.08367 11.2424 6.85775C11.4683 6.63184 11.7561 6.47799 12.0695 6.41566C12.3828 6.35333 12.7076 6.38532 13.0028 6.50758C13.298 6.62984 13.5503 6.83689 13.7278 7.10254C13.9053 7.36819 14 7.68051 14 8C13.9995 8.42829 13.8292 8.8389 13.5264 9.14174C13.2235 9.44459 12.8129 9.61493 12.3846 9.61539ZM3.61539 14C3.29589 14 2.98357 13.9053 2.71793 13.7278C2.45228 13.5503 2.24523 13.298 2.12296 13.0028C2.0007 12.7076 1.96871 12.3828 2.03104 12.0695C2.09337 11.7561 2.24722 11.4683 2.47314 11.2424C2.69905 11.0165 2.98689 10.8626 3.30024 10.8003C3.61359 10.7379 3.93839 10.7699 4.23357 10.8922C4.52874 11.0145 4.78103 11.2215 4.95853 11.4872C5.13603 11.7528 5.23077 12.0651 5.23077 12.3846C5.23031 12.8129 5.05997 13.2235 4.75713 13.5264C4.45428 13.8292 4.04367 13.9995 3.61539 14ZM8 14C7.68051 14 7.36819 13.9053 7.10254 13.7278C6.83689 13.5503 6.62984 13.298 6.50758 13.0028C6.38532 12.7076 6.35333 12.3828 6.41566 12.0695C6.47799 11.7561 6.63184 11.4683 6.85775 11.2424C7.08367 11.0165 7.3715 10.8626 7.68485 10.8003C7.99821 10.7379 8.32301 10.7699 8.61818 10.8922C8.91335 11.0145 9.16564 11.2215 9.34314 11.4872C9.52064 11.7528 9.61539 12.0651 9.61539 12.3846C9.61493 12.8129 9.44459 13.2235 9.14174 13.5264C8.8389 13.8292 8.42829 13.9995 8 14ZM12.3846 14C12.0651 14 11.7528 13.9053 11.4872 13.7278C11.2215 13.5503 11.0145 13.298 10.8922 13.0028C10.7699 12.7076 10.7379 12.3828 10.8003 12.0695C10.8626 11.7561 11.0165 11.4683 11.2424 11.2424C11.4683 11.0165 11.7561 10.8626 12.0695 10.8003C12.3828 10.7379 12.7076 10.7699 13.0028 10.8922C13.298 11.0145 13.5503 11.2215 13.7278 11.4872C13.9053 11.7528 14 12.0651 14 12.3846C13.9995 12.8129 13.8292 13.2235 13.5264 13.5264C13.2235 13.8292 12.8129 13.9995 12.3846 14Z" fill="#989899"/>
</svg>
