<svg width="34" height="15" viewBox="0 0 34 15" fill="none" xmlns="http://www.w3.org/2000/svg">
<path d="M1.16761 8.21591L1.14773 6.7642H1.38636L4.72727 3.36364H6.17898L2.61932 6.96307H2.51989L1.16761 8.21591ZM0.0738637 11V0.818182H1.24716V11H0.0738637ZM4.92614 11L1.94318 7.22159L2.77841 6.40625L6.41761 11H4.92614ZM10.457 14.0227C9.89027 14.0227 9.40305 13.9498 8.99538 13.804C8.58771 13.6615 8.24799 13.4725 7.97621 13.2372C7.70774 13.0052 7.49396 12.7566 7.33487 12.4915L8.26953 11.8352C8.37559 11.9744 8.50982 12.1335 8.67223 12.3125C8.83464 12.4948 9.0567 12.6522 9.33842 12.7848C9.62346 12.9207 9.99633 12.9886 10.457 12.9886C11.0735 12.9886 11.5823 12.8395 11.9833 12.5412C12.3844 12.2429 12.5849 11.7756 12.5849 11.1392V9.58807H12.4854C12.3993 9.72727 12.2766 9.89962 12.1175 10.1051C11.9618 10.3073 11.7364 10.4879 11.4414 10.647C11.1497 10.8028 10.7553 10.8807 10.2582 10.8807C9.64169 10.8807 9.08819 10.7348 8.59766 10.4432C8.11044 10.1515 7.72431 9.72727 7.43928 9.17045C7.15755 8.61364 7.01669 7.9375 7.01669 7.14205C7.01669 6.35985 7.15424 5.67874 7.42933 5.09872C7.70443 4.51539 8.08724 4.06463 8.57777 3.74645C9.0683 3.42495 9.63506 3.2642 10.2781 3.2642C10.7752 3.2642 11.1696 3.34706 11.4613 3.51278C11.7563 3.67519 11.9817 3.8608 12.1374 4.0696C12.2965 4.27509 12.4192 4.44413 12.5053 4.5767H12.6246V3.36364H13.7582V11.2188C13.7582 11.875 13.609 12.4086 13.3107 12.8196C13.0157 13.2339 12.618 13.5372 12.1175 13.7294C11.6204 13.925 11.0669 14.0227 10.457 14.0227ZM10.4173 9.8267C10.8879 9.8267 11.2856 9.71899 11.6104 9.50355C11.9353 9.28812 12.1822 8.97822 12.3512 8.57386C12.5202 8.16951 12.6048 7.68561 12.6048 7.12216C12.6048 6.57197 12.5219 6.08641 12.3562 5.66548C12.1905 5.24455 11.9452 4.91477 11.6204 4.67614C11.2956 4.4375 10.8945 4.31818 10.4173 4.31818C9.9201 4.31818 9.5058 4.44413 9.17436 4.69602C8.84624 4.94792 8.59931 5.28598 8.43359 5.71023C8.27119 6.13447 8.18999 6.60511 8.18999 7.12216C8.18999 7.65246 8.27285 8.12145 8.43857 8.52912C8.6076 8.93348 8.85618 9.25166 9.1843 9.48366C9.51574 9.71236 9.92673 9.8267 10.4173 9.8267ZM19.5053 0.340908L16.2241 12.5312H15.1502L18.4315 0.340908H19.5053ZM20.4984 1.91193V0.818182H28.1348V1.91193H24.9331V11H23.7001V1.91193H20.4984ZM32.6639 0.818182H33.8968V8.09659C33.8968 8.74621 33.7775 9.29806 33.5389 9.75213C33.3002 10.2062 32.9638 10.5509 32.5297 10.7862C32.0955 11.0215 31.5834 11.1392 30.9934 11.1392C30.4366 11.1392 29.9411 11.0381 29.5069 10.8359C29.0727 10.6304 28.7314 10.3388 28.4828 9.96094C28.2342 9.5831 28.1099 9.134 28.1099 8.61364H29.323C29.323 8.90199 29.3942 9.15388 29.5368 9.36932C29.6826 9.58144 29.8815 9.74716 30.1333 9.86648C30.3852 9.9858 30.6719 10.0455 30.9934 10.0455C31.3481 10.0455 31.6497 9.97088 31.8983 9.82173C32.1468 9.67259 32.3358 9.45384 32.465 9.16548C32.5976 8.87382 32.6639 8.51752 32.6639 8.09659V0.818182Z" fill="#2671D9"/>
</svg>
