<svg width="19" height="11" viewBox="0 0 19 11" fill="none" xmlns="http://www.w3.org/2000/svg">
<path d="M1.66761 8.21591L1.64773 6.7642H1.88636L5.22727 3.36364H6.67898L3.11932 6.96307H3.01989L1.66761 8.21591ZM0.573864 11V0.818182H1.74716V11H0.573864ZM5.42614 11L2.44318 7.22159L3.27841 6.40625L6.91761 11H5.42614ZM8.1891 11V3.36364H9.32262V4.55682H9.42205C9.58114 4.14915 9.83801 3.83262 10.1926 3.60724C10.5473 3.37855 10.9732 3.2642 11.4703 3.2642C11.9741 3.2642 12.3934 3.37855 12.7282 3.60724C13.0662 3.83262 13.3297 4.14915 13.5186 4.55682H13.5982C13.7937 4.16241 14.0871 3.84919 14.4782 3.61719C14.8693 3.38187 15.3382 3.2642 15.8851 3.2642C16.5679 3.2642 17.1264 3.47798 17.5605 3.90554C17.9947 4.32978 18.2118 4.991 18.2118 5.8892V11H17.0385V5.8892C17.0385 5.32576 16.8844 4.92306 16.5762 4.68111C16.2679 4.43916 15.905 4.31818 15.4874 4.31818C14.9505 4.31818 14.5345 4.48059 14.2395 4.8054C13.9445 5.12689 13.7971 5.53456 13.7971 6.02841V11H12.6039V5.76989C12.6039 5.3357 12.463 4.98603 12.1813 4.72088C11.8996 4.45241 11.5366 4.31818 11.0925 4.31818C10.7876 4.31818 10.5025 4.39938 10.2374 4.56179C9.97556 4.72419 9.76344 4.94957 9.60103 5.23793C9.44194 5.52296 9.36239 5.85275 9.36239 6.22727V11H8.1891Z" fill="#2671D9"/>
</svg>
