<svg width="24" height="12" viewBox="0 0 24 12" fill="none" xmlns="http://www.w3.org/2000/svg">
<path d="M1.24716 0.818182V11H0.0738637V0.818182H1.24716ZM3.39613 11V3.36364H4.56942V11H3.39613ZM3.99272 2.09091C3.76403 2.09091 3.56682 2.01302 3.4011 1.85724C3.2387 1.70147 3.15749 1.5142 3.15749 1.29545C3.15749 1.0767 3.2387 0.889441 3.4011 0.733664C3.56682 0.577888 3.76403 0.5 3.99272 0.5C4.22141 0.5 4.41696 0.577888 4.57937 0.733664C4.74509 0.889441 4.82795 1.0767 4.82795 1.29545C4.82795 1.5142 4.74509 1.70147 4.57937 1.85724C4.41696 2.01302 4.22141 2.09091 3.99272 2.09091ZM10.0394 3.36364V4.35795H6.08203V3.36364H10.0394ZM7.23544 1.53409H8.40874V8.8125C8.40874 9.14394 8.45679 9.39252 8.55291 9.55824C8.65234 9.72064 8.77829 9.83002 8.93075 9.88636C9.08653 9.93939 9.25059 9.96591 9.42294 9.96591C9.5522 9.96591 9.65826 9.95928 9.74112 9.94602C9.82398 9.92945 9.89027 9.91619 9.93999 9.90625L10.1786 10.9602C10.0991 10.9901 9.98804 11.0199 9.84553 11.0497C9.70301 11.0829 9.52237 11.0994 9.30362 11.0994C8.97218 11.0994 8.64737 11.0282 8.32919 10.8857C8.01432 10.7431 7.75249 10.526 7.54368 10.2344C7.33819 9.94271 7.23544 9.57481 7.23544 9.13068V1.53409ZM14.924 11.1591C14.1882 11.1591 13.5535 10.9967 13.0199 10.6719C12.4896 10.3438 12.0803 9.88636 11.7919 9.29972C11.5069 8.70975 11.3643 8.02367 11.3643 7.24148C11.3643 6.45928 11.5069 5.76989 11.7919 5.1733C12.0803 4.57339 12.4813 4.10606 12.995 3.77131C13.5121 3.43324 14.1153 3.2642 14.8047 3.2642C15.2024 3.2642 15.5952 3.33049 15.983 3.46307C16.3707 3.59564 16.7237 3.81108 17.0419 4.10938C17.3601 4.40436 17.6136 4.79545 17.8026 5.28267C17.9915 5.76989 18.0859 6.36979 18.0859 7.08239V7.57955H12.1996V6.56534H16.8928C16.8928 6.13447 16.8066 5.75 16.6342 5.41193C16.4652 5.07386 16.2232 4.80705 15.9084 4.61151C15.5968 4.41596 15.2289 4.31818 14.8047 4.31818C14.3374 4.31818 13.933 4.43419 13.5916 4.66619C13.2536 4.89489 12.9934 5.19318 12.8111 5.56108C12.6288 5.92898 12.5376 6.32339 12.5376 6.74432V7.42045C12.5376 7.99716 12.6371 8.48603 12.8359 8.88707C13.0381 9.2848 13.3182 9.58807 13.6761 9.79688C14.0341 10.0024 14.45 10.1051 14.924 10.1051C15.2322 10.1051 15.5107 10.062 15.7592 9.97585C16.0111 9.88636 16.2282 9.75379 16.4105 9.57812C16.5928 9.39915 16.7337 9.17708 16.8331 8.91193L17.9666 9.23011C17.8473 9.61458 17.6468 9.95265 17.3651 10.2443C17.0833 10.5327 16.7353 10.758 16.321 10.9205C15.9067 11.0795 15.4411 11.1591 14.924 11.1591ZM19.8707 11V3.36364H21.0043V4.51705H21.0838C21.223 4.1392 21.4749 3.83262 21.8395 3.5973C22.2041 3.36198 22.6151 3.24432 23.0724 3.24432C23.1586 3.24432 23.2663 3.24597 23.3956 3.24929C23.5249 3.2526 23.6226 3.25758 23.6889 3.2642V4.45739C23.6491 4.44744 23.558 4.43253 23.4155 4.41264C23.2763 4.38944 23.1288 4.37784 22.973 4.37784C22.6018 4.37784 22.2704 4.45573 21.9787 4.61151C21.6903 4.76397 21.4616 4.97609 21.2926 5.24787C21.1269 5.51634 21.044 5.82292 21.044 6.16761V11H19.8707Z" fill="#2671D9"/>
</svg>
