<svg width="40" height="15" viewBox="0 0 40 15" fill="none" xmlns="http://www.w3.org/2000/svg">
<path d="M9.82386 5.90909C9.82386 6.98295 9.62997 7.91098 9.24219 8.69318C8.8544 9.47538 8.32244 10.0786 7.64631 10.5028C6.97017 10.9271 6.19792 11.1392 5.32955 11.1392C4.46117 11.1392 3.68892 10.9271 3.01278 10.5028C2.33665 10.0786 1.80469 9.47538 1.4169 8.69318C1.02912 7.91098 0.835227 6.98295 0.835227 5.90909C0.835227 4.83523 1.02912 3.9072 1.4169 3.125C1.80469 2.3428 2.33665 1.73958 3.01278 1.31534C3.68892 0.891098 4.46117 0.678977 5.32955 0.678977C6.19792 0.678977 6.97017 0.891098 7.64631 1.31534C8.32244 1.73958 8.8544 2.3428 9.24219 3.125C9.62997 3.9072 9.82386 4.83523 9.82386 5.90909ZM8.63068 5.90909C8.63068 5.02746 8.48319 4.28338 8.18821 3.67685C7.89654 3.07031 7.50047 2.61127 7 2.29972C6.50284 1.98816 5.94602 1.83239 5.32955 1.83239C4.71307 1.83239 4.15459 1.98816 3.65412 2.29972C3.15696 2.61127 2.76089 3.07031 2.46591 3.67685C2.17424 4.28338 2.02841 5.02746 2.02841 5.90909C2.02841 6.79072 2.17424 7.5348 2.46591 8.14134C2.76089 8.74787 3.15696 9.20691 3.65412 9.51847C4.15459 9.83002 4.71307 9.9858 5.32955 9.9858C5.94602 9.9858 6.50284 9.83002 7 9.51847C7.50047 9.20691 7.89654 8.74787 8.18821 8.14134C8.48319 7.5348 8.63068 6.79072 8.63068 5.90909ZM11.7379 11V3.36364H12.8714V4.51705H12.951C13.0902 4.1392 13.3421 3.83262 13.7067 3.5973C14.0713 3.36198 14.4822 3.24432 14.9396 3.24432C15.0258 3.24432 15.1335 3.24597 15.2628 3.24929C15.392 3.2526 15.4898 3.25758 15.5561 3.2642V4.45739C15.5163 4.44744 15.4252 4.43253 15.2827 4.41264C15.1435 4.38944 14.996 4.37784 14.8402 4.37784C14.469 4.37784 14.1375 4.45573 13.8459 4.61151C13.5575 4.76397 13.3288 4.97609 13.1598 5.24787C12.9941 5.51634 12.9112 5.82292 12.9112 6.16761V11H11.7379ZM19.1941 11.179C18.7102 11.179 18.271 11.0878 17.8766 10.9055C17.4822 10.7199 17.169 10.4531 16.937 10.1051C16.705 9.75379 16.589 9.32955 16.589 8.83239C16.589 8.39489 16.6751 8.04025 16.8475 7.76847C17.0198 7.49337 17.2502 7.27794 17.5385 7.12216C17.8269 6.96638 18.1451 6.85038 18.4931 6.77415C18.8444 6.6946 19.1974 6.63163 19.552 6.58523C20.016 6.52557 20.3922 6.48082 20.6806 6.45099C20.9722 6.41785 21.1844 6.36316 21.3169 6.28693C21.4528 6.2107 21.5208 6.07812 21.5208 5.8892V5.84943C21.5208 5.3589 21.3865 4.97775 21.1181 4.70597C20.8529 4.43419 20.4502 4.2983 19.91 4.2983C19.3498 4.2983 18.9107 4.42093 18.5925 4.66619C18.2743 4.91146 18.0506 5.1733 17.9213 5.4517L16.8077 5.05398C17.0066 4.58996 17.2717 4.22869 17.6032 3.97017C17.9379 3.70833 18.3025 3.52604 18.6969 3.4233C19.0946 3.31723 19.4857 3.2642 19.8702 3.2642C20.1155 3.2642 20.3972 3.29403 20.7154 3.35369C21.0369 3.41004 21.3468 3.5277 21.6451 3.70668C21.9467 3.88565 22.1969 4.15578 22.3958 4.51705C22.5946 4.87831 22.6941 5.36222 22.6941 5.96875V11H21.5208V9.96591H21.4611C21.3816 10.1316 21.249 10.3089 21.0634 10.4979C20.8778 10.6868 20.6309 10.8475 20.3226 10.9801C20.0144 11.1127 19.6382 11.179 19.1941 11.179ZM19.373 10.125C19.8371 10.125 20.2282 10.0339 20.5463 9.85156C20.8678 9.66927 21.1098 9.43395 21.2722 9.1456C21.4379 8.85724 21.5208 8.55398 21.5208 8.2358V7.16193C21.4711 7.22159 21.3617 7.27628 21.1926 7.32599C21.0269 7.3724 20.8347 7.41383 20.6159 7.45028C20.4005 7.48343 20.19 7.51326 19.9846 7.53977C19.7824 7.56297 19.6183 7.58286 19.4924 7.59943C19.1874 7.6392 18.9024 7.70384 18.6373 7.79332C18.3754 7.8795 18.1633 8.01042 18.0009 8.18608C17.8418 8.35843 17.7623 8.59375 17.7623 8.89205C17.7623 9.29972 17.9131 9.60795 18.2147 9.81676C18.5196 10.0223 18.9057 10.125 19.373 10.125ZM26.0089 6.40625V11H24.8356V3.36364H25.9691V4.55682H26.0685C26.2475 4.16903 26.5193 3.85748 26.8839 3.62216C27.2485 3.38352 27.7191 3.2642 28.2958 3.2642C28.8129 3.2642 29.2653 3.37027 29.6531 3.58239C30.0408 3.79119 30.3424 4.10938 30.5579 4.53693C30.7733 4.96117 30.881 5.49811 30.881 6.14773V11H29.7077V6.22727C29.7077 5.62737 29.552 5.16004 29.2404 4.82528C28.9289 4.48722 28.5013 4.31818 27.9577 4.31818C27.5832 4.31818 27.2485 4.39938 26.9535 4.56179C26.6618 4.72419 26.4315 4.96117 26.2624 5.27273C26.0934 5.58428 26.0089 5.96212 26.0089 6.40625ZM36.1074 14.0227C35.5407 14.0227 35.0534 13.9498 34.6458 13.804C34.2381 13.6615 33.8984 13.4725 33.6266 13.2372C33.3581 13.0052 33.1444 12.7566 32.9853 12.4915L33.9199 11.8352C34.026 11.9744 34.1602 12.1335 34.3226 12.3125C34.485 12.4948 34.7071 12.6522 34.9888 12.7848C35.2739 12.9207 35.6467 12.9886 36.1074 12.9886C36.7239 12.9886 37.2327 12.8395 37.6337 12.5412C38.0347 12.2429 38.2353 11.7756 38.2353 11.1392V9.58807H38.1358C38.0497 9.72727 37.927 9.89962 37.7679 10.1051C37.6122 10.3073 37.3868 10.4879 37.0918 10.647C36.8001 10.8028 36.4057 10.8807 35.9086 10.8807C35.2921 10.8807 34.7386 10.7348 34.248 10.4432C33.7608 10.1515 33.3747 9.72727 33.0897 9.17045C32.8079 8.61364 32.6671 7.9375 32.6671 7.14205C32.6671 6.35985 32.8046 5.67874 33.0797 5.09872C33.3548 4.51539 33.7376 4.06463 34.2282 3.74645C34.7187 3.42495 35.2855 3.2642 35.9284 3.2642C36.4256 3.2642 36.82 3.34706 37.1117 3.51278C37.4067 3.67519 37.632 3.8608 37.7878 4.0696C37.9469 4.27509 38.0695 4.44413 38.1557 4.5767H38.275V3.36364H39.4086V11.2188C39.4086 11.875 39.2594 12.4086 38.9611 12.8196C38.6661 13.2339 38.2684 13.5372 37.7679 13.7294C37.2708 13.925 36.7173 14.0227 36.1074 14.0227ZM36.0676 9.8267C36.5383 9.8267 36.936 9.71899 37.2608 9.50355C37.5856 9.28812 37.8326 8.97822 38.0016 8.57386C38.1706 8.16951 38.2551 7.68561 38.2551 7.12216C38.2551 6.57197 38.1723 6.08641 38.0066 5.66548C37.8409 5.24455 37.5956 4.91477 37.2708 4.67614C36.946 4.4375 36.5449 4.31818 36.0676 4.31818C35.5705 4.31818 35.1562 4.44413 34.8248 4.69602C34.4966 4.94792 34.2497 5.28598 34.084 5.71023C33.9216 6.13447 33.8404 6.60511 33.8404 7.12216C33.8404 7.65246 33.9232 8.12145 34.089 8.52912C34.258 8.93348 34.5066 9.25166 34.8347 9.48366C35.1661 9.71236 35.5771 9.8267 36.0676 9.8267Z" fill="#2671D9"/>
</svg>
