<svg width="40" height="13" viewBox="0 0 40 13" fill="none" xmlns="http://www.w3.org/2000/svg">
<path d="M4.39489 3.36364V4.35795H0.4375V3.36364H4.39489ZM1.59091 1.53409H2.7642V8.8125C2.7642 9.14394 2.81226 9.39252 2.90838 9.55824C3.00781 9.72064 3.13376 9.83002 3.28622 9.88636C3.442 9.93939 3.60606 9.96591 3.77841 9.96591C3.90767 9.96591 4.01373 9.95928 4.09659 9.94602C4.17945 9.92945 4.24574 9.91619 4.29545 9.90625L4.53409 10.9602C4.45455 10.9901 4.34351 11.0199 4.20099 11.0497C4.05848 11.0829 3.87784 11.0994 3.65909 11.0994C3.32765 11.0994 3.00284 11.0282 2.68466 10.8857C2.36979 10.7431 2.10795 10.526 1.89915 10.2344C1.69366 9.94271 1.59091 9.57481 1.59091 9.13068V1.53409ZM14.5121 4H13.2791C13.2062 3.64536 13.0786 3.33381 12.8963 3.06534C12.7173 2.79688 12.4986 2.5715 12.2401 2.3892C11.9848 2.2036 11.7015 2.06439 11.3899 1.97159C11.0784 1.87879 10.7536 1.83239 10.4155 1.83239C9.79901 1.83239 9.24053 1.98816 8.74006 2.29972C8.2429 2.61127 7.84683 3.07031 7.55185 3.67685C7.26018 4.28338 7.11435 5.02746 7.11435 5.90909C7.11435 6.79072 7.26018 7.5348 7.55185 8.14134C7.84683 8.74787 8.2429 9.20691 8.74006 9.51847C9.24053 9.83002 9.79901 9.9858 10.4155 9.9858C10.7536 9.9858 11.0784 9.93939 11.3899 9.84659C11.7015 9.75379 11.9848 9.61624 12.2401 9.43395C12.4986 9.24834 12.7173 9.02131 12.8963 8.75284C13.0786 8.48106 13.2062 8.16951 13.2791 7.81818H14.5121C14.4193 8.33854 14.2502 8.80421 14.005 9.2152C13.7597 9.62618 13.4548 9.97585 13.0902 10.2642C12.7256 10.5492 12.3163 10.7663 11.8622 10.9155C11.4115 11.0646 10.9292 11.1392 10.4155 11.1392C9.54711 11.1392 8.77486 10.9271 8.09872 10.5028C7.42259 10.0786 6.89063 9.47538 6.50284 8.69318C6.11506 7.91098 5.92116 6.98295 5.92116 5.90909C5.92116 4.83523 6.11506 3.9072 6.50284 3.125C6.89063 2.3428 7.42259 1.73958 8.09872 1.31534C8.77486 0.891098 9.54711 0.678977 10.4155 0.678977C10.9292 0.678977 11.4115 0.753551 11.8622 0.902699C12.3163 1.05185 12.7256 1.2706 13.0902 1.55895C13.4548 1.84399 13.7597 2.192 14.005 2.60298C14.2502 3.01065 14.4193 3.47633 14.5121 4ZM25.0953 5.90909C25.0953 6.98295 24.9015 7.91098 24.5137 8.69318C24.1259 9.47538 23.5939 10.0786 22.9178 10.5028C22.2417 10.9271 21.4694 11.1392 20.601 11.1392C19.7327 11.1392 18.9604 10.9271 18.2843 10.5028C17.6081 10.0786 17.0762 9.47538 16.6884 8.69318C16.3006 7.91098 16.1067 6.98295 16.1067 5.90909C16.1067 4.83523 16.3006 3.9072 16.6884 3.125C17.0762 2.3428 17.6081 1.73958 18.2843 1.31534C18.9604 0.891098 19.7327 0.678977 20.601 0.678977C21.4694 0.678977 22.2417 0.891098 22.9178 1.31534C23.5939 1.73958 24.1259 2.3428 24.5137 3.125C24.9015 3.9072 25.0953 4.83523 25.0953 5.90909ZM23.9022 5.90909C23.9022 5.02746 23.7547 4.28338 23.4597 3.67685C23.168 3.07031 22.772 2.61127 22.2715 2.29972C21.7743 1.98816 21.2175 1.83239 20.601 1.83239C19.9846 1.83239 19.4261 1.98816 18.9256 2.29972C18.4284 2.61127 18.0324 3.07031 17.7374 3.67685C17.4457 4.28338 17.2999 5.02746 17.2999 5.90909C17.2999 6.79072 17.4457 7.5348 17.7374 8.14134C18.0324 8.74787 18.4284 9.20691 18.9256 9.51847C19.4261 9.83002 19.9846 9.9858 20.601 9.9858C21.2175 9.9858 21.7743 9.83002 22.2715 9.51847C22.772 9.20691 23.168 8.74787 23.4597 8.14134C23.7547 7.5348 23.9022 6.79072 23.9022 5.90909ZM26.6316 12.75V11.9744L28.9583 9.90625C29.1903 9.70076 29.3842 9.51681 29.54 9.3544C29.6957 9.192 29.8134 9.03456 29.8929 8.8821C29.9725 8.72964 30.0123 8.56723 30.0123 8.39489C30.0123 8.09659 29.8979 7.85961 29.6692 7.68395C29.4405 7.50829 29.1571 7.42045 28.8191 7.42045C28.4611 7.42045 28.1728 7.51657 27.954 7.70881C27.7353 7.89773 27.6259 8.14631 27.6259 8.45455H26.5918C26.5918 7.88778 26.8023 7.43205 27.2232 7.08736C27.6441 6.73935 28.1827 6.56534 28.839 6.56534C29.2765 6.56534 29.6609 6.64489 29.9924 6.80398C30.3238 6.95975 30.5823 7.17519 30.7679 7.45028C30.9535 7.72206 31.0463 8.0303 31.0463 8.375C31.0463 8.64678 30.9917 8.89867 30.8823 9.13068C30.7729 9.36269 30.6022 9.60298 30.3702 9.85156C30.1382 10.1001 29.8399 10.3835 29.4753 10.7017L28.1827 11.8352V11.875H31.2253V12.75H26.6316ZM36.1037 11.1591C35.3679 11.1591 34.7332 10.9967 34.1996 10.6719C33.6693 10.3438 33.2599 9.88636 32.9716 9.29972C32.6866 8.70975 32.544 8.02367 32.544 7.24148C32.544 6.45928 32.6866 5.76989 32.9716 5.1733C33.2599 4.57339 33.661 4.10606 34.1747 3.77131C34.6918 3.43324 35.295 3.2642 35.9844 3.2642C36.3821 3.2642 36.7749 3.33049 37.1626 3.46307C37.5504 3.59564 37.9034 3.81108 38.2216 4.10938C38.5398 4.40436 38.7933 4.79545 38.9822 5.28267C39.1712 5.76989 39.2656 6.36979 39.2656 7.08239V7.57955H33.3793V6.56534H38.0724C38.0724 6.13447 37.9863 5.75 37.8139 5.41193C37.6449 5.07386 37.4029 4.80705 37.0881 4.61151C36.7765 4.41596 36.4086 4.31818 35.9844 4.31818C35.517 4.31818 35.1127 4.43419 34.7713 4.66619C34.4332 4.89489 34.1731 5.19318 33.9908 5.56108C33.8085 5.92898 33.7173 6.32339 33.7173 6.74432V7.42045C33.7173 7.99716 33.8168 8.48603 34.0156 8.88707C34.2178 9.2848 34.4979 9.58807 34.8558 9.79688C35.2138 10.0024 35.6297 10.1051 36.1037 10.1051C36.4119 10.1051 36.6903 10.062 36.9389 9.97585C37.1908 9.88636 37.4079 9.75379 37.5902 9.57812C37.7725 9.39915 37.9134 9.17708 38.0128 8.91193L39.1463 9.23011C39.027 9.61458 38.8265 9.95265 38.5447 10.2443C38.263 10.5327 37.915 10.758 37.5007 10.9205C37.0864 11.0795 36.6207 11.1591 36.1037 11.1591Z" fill="#2671D9"/>
</svg>
