<svg width="10" height="10" viewBox="0 0 10 10" fill="none" xmlns="http://www.w3.org/2000/svg">
<path d="M5 2.8125C4.91712 2.8125 4.83763 2.77958 4.77903 2.72097C4.72042 2.66237 4.6875 2.58288 4.6875 2.5C4.6875 2.41712 4.72042 2.33763 4.77903 2.27903C4.83763 2.22042 4.91712 2.1875 5 2.1875C5.08288 2.1875 5.16237 2.22042 5.22097 2.27903C5.27958 2.33763 5.3125 2.41712 5.3125 2.5C5.3125 2.58288 5.27958 2.66237 5.22097 2.72097C5.16237 2.77958 5.08288 2.8125 5 2.8125ZM5 5.3125C4.91712 5.3125 4.83763 5.27958 4.77903 5.22097C4.72042 5.16237 4.6875 5.08288 4.6875 5C4.6875 4.91712 4.72042 4.83763 4.77903 4.77903C4.83763 4.72042 4.91712 4.6875 5 4.6875C5.08288 4.6875 5.16237 4.72042 5.22097 4.77903C5.27958 4.83763 5.3125 4.91712 5.3125 5C5.3125 5.08288 5.27958 5.16237 5.22097 5.22097C5.16237 5.27958 5.08288 5.3125 5 5.3125ZM5 7.8125C4.91712 7.8125 4.83763 7.77958 4.77903 7.72097C4.72042 7.66237 4.6875 7.58288 4.6875 7.5C4.6875 7.41712 4.72042 7.33763 4.77903 7.27903C4.83763 7.22042 4.91712 7.1875 5 7.1875C5.08288 7.1875 5.16237 7.22042 5.22097 7.27903C5.27958 7.33763 5.3125 7.41712 5.3125 7.5C5.3125 7.58288 5.27958 7.66237 5.22097 7.72097C5.16237 7.77958 5.08288 7.8125 5 7.8125Z" stroke="#FFFFFF" stroke-linecap="round" stroke-linejoin="round"/>
</svg>
