<svg width="14" height="14" viewBox="0 0 14 14" fill="none" xmlns="http://www.w3.org/2000/svg">
<path fill-rule="evenodd" clip-rule="evenodd" d="M7 0.875C7.48325 0.875 7.875 1.26675 7.875 1.75V6.125H12.25C12.7332 6.125 13.125 6.51675 13.125 7C13.125 7.48325 12.7332 7.875 12.25 7.875H7.875V12.25C7.875 12.7332 7.48325 13.125 7 13.125C6.51675 13.125 6.125 12.7332 6.125 12.25V7.875H1.75C1.26675 7.875 0.875 7.48325 0.875 7C0.875 6.51675 1.26675 6.125 1.75 6.125H6.125V1.75C6.125 1.26675 6.51675 0.875 7 0.875Z" fill="#2671D9"/>
</svg>
