<svg width="16" height="16" viewBox="0 0 16 16" fill="none" xmlns="http://www.w3.org/2000/svg">
<path fill-rule="evenodd" clip-rule="evenodd" d="M4.50016 1.33337C4.86835 1.33337 5.16683 1.63185 5.16683 2.00004V2.83337H10.8335V2.00004C10.8335 1.63185 11.132 1.33337 11.5002 1.33337C11.8684 1.33337 12.1668 1.63185 12.1668 2.00004V2.83337H12.5002C13.6968 2.83337 14.6668 3.80342 14.6668 5.00004V12.5C14.6668 13.6967 13.6968 14.6667 12.5002 14.6667H3.50016C2.30355 14.6667 1.3335 13.6967 1.3335 12.5V5.00004C1.3335 3.80342 2.30355 2.83337 3.50016 2.83337H3.8335V2.00004C3.8335 1.63185 4.13197 1.33337 4.50016 1.33337ZM3.50016 4.16671C3.03993 4.16671 2.66683 4.5398 2.66683 5.00004V5.49943C2.92336 5.39245 3.20486 5.33337 3.50016 5.33337H12.5002C12.7955 5.33337 13.077 5.39245 13.3335 5.49943V5.00004C13.3335 4.5398 12.9604 4.16671 12.5002 4.16671H3.50016ZM13.3335 7.50004C13.3335 7.0398 12.9604 6.66671 12.5002 6.66671H3.50016C3.03993 6.66671 2.66683 7.0398 2.66683 7.50004V12.5C2.66683 12.9603 3.03993 13.3334 3.50016 13.3334H12.5002C12.9604 13.3334 13.3335 12.9603 13.3335 12.5V7.50004Z" fill="#2671D9"/>
</svg>
