<svg width="16" height="16" viewBox="0 0 16 16" fill="none" xmlns="http://www.w3.org/2000/svg">
<path fill-rule="evenodd" clip-rule="evenodd" d="M8.00003 2.16665C7.6367 2.16665 7.27476 2.17246 6.91429 2.18399C6.53732 2.19605 6.21992 2.48984 6.17274 2.88358C6.77766 2.85021 7.3869 2.83331 8.00003 2.83331C8.61315 2.83331 9.2224 2.85021 9.82732 2.88358C9.78014 2.48984 9.46273 2.19605 9.08577 2.18399C8.72529 2.17246 8.36335 2.16665 8.00003 2.16665ZM11.1667 2.98488C11.1664 1.85656 10.2911 0.888529 9.1284 0.851336C8.75372 0.839351 8.37757 0.833313 8.00003 0.833313C7.62249 0.833313 7.24633 0.839351 6.87166 0.851336C5.70899 0.888529 4.83365 1.85656 4.83336 2.98488C4.24492 3.0415 3.66101 3.11373 3.08204 3.20117C2.8493 3.23632 2.61736 3.27392 2.38624 3.31396C2.02345 3.3768 1.7803 3.72184 1.84314 4.08463C1.90359 4.43359 2.22514 4.67186 2.57244 4.63359L3.22879 13.1662C3.31562 14.295 4.25691 15.1666 5.38907 15.1666H10.611C11.7431 15.1666 12.6844 14.295 12.7713 13.1662L13.4276 4.63359C13.7749 4.67186 14.0965 4.43359 14.1569 4.08463C14.2198 3.72184 13.9766 3.3768 13.6138 3.31396C13.3827 3.27392 13.1508 3.23632 12.918 3.20117C12.339 3.11373 11.7551 3.0415 11.1667 2.98488ZM12.1058 4.43315C11.5578 4.36144 11.0053 4.30389 10.4487 4.26088C9.64078 4.19845 8.82418 4.16665 8.00003 4.16665C7.17587 4.16665 6.35928 4.19845 5.55139 4.26088C4.99478 4.30389 4.44229 4.36144 3.89429 4.43315L4.5582 13.0639C4.59159 13.4981 4.95363 13.8333 5.38907 13.8333H10.611C11.0464 13.8333 11.4085 13.4981 11.4419 13.0639L12.1058 4.43315ZM6.14748 5.33381C6.5154 5.31965 6.82513 5.60644 6.83928 5.97436L7.07005 11.9744C7.0842 12.3423 6.79741 12.652 6.4295 12.6662C6.06158 12.6803 5.75185 12.3935 5.7377 12.0256L5.50693 6.0256C5.49278 5.65768 5.77956 5.34796 6.14748 5.33381ZM9.85257 5.33381C10.2205 5.34796 10.5073 5.65768 10.4931 6.0256L10.2624 12.0256C10.2482 12.3935 9.93848 12.6803 9.57056 12.6662C9.20264 12.652 8.91586 12.3423 8.93001 11.9744L9.16078 5.97436C9.17493 5.60644 9.48466 5.31965 9.85257 5.33381Z" fill="#C53830"/>
</svg>
