<svg width="40" height="40" viewBox="0 0 40 40" fill="none" xmlns="http://www.w3.org/2000/svg">
<rect width="40" height="40" rx="8" fill="#E9F1FB"/>
<path fill-rule="evenodd" clip-rule="evenodd" d="M19.1253 16.208C17.7561 16.208 16.6462 17.318 16.6462 18.6872C16.6462 18.8453 16.6609 18.9994 16.6889 19.1484C16.7428 19.4357 16.5758 19.7186 16.2981 19.8101C15.4832 20.0787 14.8962 20.8464 14.8962 21.7497C14.8962 22.8773 15.8102 23.7914 16.9378 23.7914H23.5003C24.3863 23.7914 25.1045 23.0732 25.1045 22.1872C25.1045 21.5028 24.6756 20.9171 24.0699 20.6869C23.7742 20.5746 23.622 20.2471 23.7267 19.9486C23.7688 19.8284 23.792 19.6986 23.792 19.5622C23.792 18.9179 23.2697 18.3955 22.6253 18.3955C22.4986 18.3955 22.3777 18.4155 22.2649 18.4521C22.1126 18.5015 21.9467 18.4861 21.8061 18.4096C21.6654 18.333 21.5625 18.202 21.5213 18.0473C21.2392 16.9879 20.2726 16.208 19.1253 16.208ZM15.4795 18.6872C15.4795 16.6737 17.1118 15.0414 19.1253 15.0414C20.6229 15.0414 21.9085 15.9439 22.4698 17.234C22.5213 17.2306 22.5731 17.2289 22.6253 17.2289C23.914 17.2289 24.9587 18.2736 24.9587 19.5622C24.9587 19.6499 24.9538 19.7366 24.9443 19.8221C25.7396 20.3086 26.2712 21.1853 26.2712 22.1872C26.2712 23.7175 25.0306 24.958 23.5003 24.958H16.9378C15.1659 24.958 13.7295 23.5216 13.7295 21.7497C13.7295 20.5001 14.4436 19.4184 15.485 18.8886C15.4813 18.8219 15.4795 18.7547 15.4795 18.6872ZM20.0003 18.1039C20.3225 18.1039 20.5837 18.365 20.5837 18.6872V21.2164L21.3378 20.4622C21.5657 20.2344 21.935 20.2344 22.1628 20.4622C22.3906 20.69 22.3906 21.0594 22.1628 21.2872L20.4128 23.0372C20.185 23.265 19.8157 23.265 19.5878 23.0372L17.8378 21.2872C17.61 21.0594 17.61 20.69 17.8378 20.4622C18.0657 20.2344 18.435 20.2344 18.6628 20.4622L19.417 21.2164V18.6872C19.417 18.365 19.6782 18.1039 20.0003 18.1039Z" fill="#2671D9"/>
</svg>
