<svg width="16" height="16" viewBox="0 0 16 16" fill="none" xmlns="http://www.w3.org/2000/svg">
<g clip-path="url(#clip0_9922_3586)">
<path fill-rule="evenodd" clip-rule="evenodd" d="M13.6651 2.34013C13.4373 2.11232 13.0679 2.11232 12.8401 2.34013L12.1865 2.99372L13.0115 3.81868L13.6651 3.16508C13.8929 2.93728 13.8929 2.56793 13.6651 2.34013ZM12.0687 4.76149L11.2437 3.93653L3.26104 11.9192C2.98691 12.1934 2.78541 12.5315 2.67473 12.903L2.49336 13.5119L3.10222 13.3305C3.47377 13.2198 3.81188 13.0183 4.08601 12.7442L12.0687 4.76149ZM11.8973 1.39732C12.6458 0.648811 13.8594 0.648811 14.6079 1.39732C15.3564 2.14582 15.3564 3.35939 14.6079 4.10789L5.02882 13.687C4.59804 14.1178 4.06672 14.4344 3.48287 14.6083L1.69294 15.1415C1.45834 15.2114 1.20431 15.1471 1.03122 14.974C0.858123 14.8009 0.793815 14.5469 0.863699 14.3123L1.39689 12.5224C1.5708 11.9385 1.88746 11.4072 2.31823 10.9764L11.8973 1.39732Z" fill="#2671D9"/>
</g>
<defs>
<clipPath id="clip0_9922_3586">
<rect width="16" height="16" fill="white"/>
</clipPath>
</defs>
</svg>
