<svg width="16" height="16" viewBox="0 0 16 16" fill="none" xmlns="http://www.w3.org/2000/svg">
<path d="M12.6668 1.33337H3.3335C2.80306 1.33337 2.29436 1.54409 1.91928 1.91916C1.54421 2.29423 1.3335 2.80294 1.3335 3.33337V4.11337C1.3334 4.38867 1.39014 4.66102 1.50016 4.91337V4.95337C1.59435 5.16735 1.72776 5.36181 1.8935 5.52671L6.00016 9.60671V14C5.99994 14.1133 6.02859 14.2248 6.08341 14.324C6.13823 14.4231 6.21742 14.5067 6.3135 14.5667C6.41959 14.6325 6.54201 14.6671 6.66683 14.6667C6.77119 14.6661 6.87395 14.641 6.96683 14.5934L9.6335 13.26C9.74344 13.2046 9.83589 13.1199 9.90061 13.0152C9.96533 12.9104 9.99979 12.7898 10.0002 12.6667V9.60671L14.0802 5.52671C14.2459 5.36181 14.3793 5.16735 14.4735 4.95337V4.91337C14.5927 4.66299 14.6585 4.39056 14.6668 4.11337V3.33337C14.6668 2.80294 14.4561 2.29423 14.081 1.91916C13.706 1.54409 13.1973 1.33337 12.6668 1.33337ZM8.86016 8.86004C8.79838 8.92233 8.74949 8.99621 8.71632 9.07744C8.68314 9.15866 8.66632 9.24564 8.66683 9.33337V12.2534L7.3335 12.92V9.33337C7.334 9.24564 7.31719 9.15866 7.28401 9.07744C7.25083 8.99621 7.20195 8.92233 7.14016 8.86004L3.60683 5.33337H12.3935L8.86016 8.86004ZM13.3335 4.00004H2.66683V3.33337C2.66683 3.15656 2.73707 2.98699 2.86209 2.86197C2.98712 2.73695 3.15669 2.66671 3.3335 2.66671H12.6668C12.8436 2.66671 13.0132 2.73695 13.1382 2.86197C13.2633 2.98699 13.3335 3.15656 13.3335 3.33337V4.00004Z" fill="#2671D9"/>
</svg>
