<svg width="16" height="15" viewBox="0 0 16 15" fill="none" xmlns="http://www.w3.org/2000/svg">
<path d="M13.25 2.62502H8.54L8.3 1.87502C8.14441 1.43494 7.85581 1.05414 7.47418 0.785387C7.09254 0.516631 6.63677 0.373217 6.17 0.375017H2.75C2.15326 0.375017 1.58097 0.61207 1.15901 1.03403C0.737053 1.45598 0.5 2.02828 0.5 2.62502V12.375C0.5 12.9718 0.737053 13.5441 1.15901 13.966C1.58097 14.388 2.15326 14.625 2.75 14.625H13.25C13.8467 14.625 14.419 14.388 14.841 13.966C15.2629 13.5441 15.5 12.9718 15.5 12.375V4.87502C15.5 4.27828 15.2629 3.70598 14.841 3.28403C14.419 2.86207 13.8467 2.62502 13.25 2.62502ZM14 12.375C14 12.5739 13.921 12.7647 13.7803 12.9053C13.6397 13.046 13.4489 13.125 13.25 13.125H2.75C2.55109 13.125 2.36032 13.046 2.21967 12.9053C2.07902 12.7647 2 12.5739 2 12.375V2.62502C2 2.4261 2.07902 2.23534 2.21967 2.09469C2.36032 1.95403 2.55109 1.87502 2.75 1.87502H6.17C6.32723 1.87461 6.48062 1.92363 6.60847 2.01515C6.73633 2.10667 6.83219 2.23605 6.8825 2.38502L7.2875 3.61502C7.33781 3.76398 7.43367 3.89337 7.56153 3.98489C7.68938 4.0764 7.84277 4.12542 8 4.12502H13.25C13.4489 4.12502 13.6397 4.20403 13.7803 4.34469C13.921 4.48534 14 4.6761 14 4.87502V12.375Z" fill="white"/>
</svg>
