<svg width="13" height="12" viewBox="0 0 13 12" fill="none" xmlns="http://www.w3.org/2000/svg">
<path fill-rule="evenodd" clip-rule="evenodd" d="M0.491112 0.413396C0.641529 0.260586 0.863653 0.202615 1.06956 0.26243C4.99332 1.40226 8.63706 3.19931 11.8737 5.52618C12.0262 5.63578 12.1165 5.81206 12.1165 5.99982C12.1165 6.18758 12.0262 6.36386 11.8737 6.47346C8.63709 8.80037 4.99337 10.5975 1.06962 11.7373C0.863713 11.7972 0.641586 11.7392 0.491168 11.5864C0.34075 11.4336 0.286291 11.2106 0.34935 11.0056L1.88955 5.99997L0.349296 0.994156C0.286238 0.789218 0.340696 0.566206 0.491112 0.413396ZM2.9307 6.58331L1.78853 10.2954C4.91881 9.2763 7.85227 7.82054 10.517 5.99983C7.85225 4.17915 4.91877 2.72342 1.78847 1.70438L2.93071 5.41664L6.87503 5.41664C7.1972 5.41664 7.45837 5.67781 7.45837 5.99997C7.45837 6.32214 7.1972 6.58331 6.87503 6.58331L2.9307 6.58331Z" fill="white"/>
</svg>
