<svg width="14" height="14" viewBox="0 0 14 14" fill="none" xmlns="http://www.w3.org/2000/svg">
<path fill-rule="evenodd" clip-rule="evenodd" d="M0.704146 0.61503C0.87605 0.440391 1.12991 0.374138 1.36523 0.442498C5.84952 1.74516 10.0138 3.79893 13.7128 6.45821C13.8871 6.58347 13.9904 6.78493 13.9904 6.99951C13.9904 7.21409 13.8871 7.41556 13.7128 7.54081C10.0138 10.2001 5.84958 12.254 1.3653 13.5567C1.12998 13.625 0.876116 13.5588 0.704209 13.3842C0.532303 13.2095 0.470065 12.9546 0.542131 12.7204L2.30236 6.99969L0.54207 1.27876C0.470004 1.04454 0.532241 0.78967 0.704146 0.61503ZM3.49225 7.66636L2.18691 11.9087C5.76437 10.7441 9.1169 9.08034 12.1623 6.99952C9.11687 4.91874 5.76433 3.25506 2.18684 2.09044L3.49225 6.33302L8.00006 6.33302C8.36825 6.33302 8.66672 6.6315 8.66672 6.99969C8.66672 7.36788 8.36825 7.66636 8.00006 7.66636L3.49225 7.66636Z" fill="#2671D9"/>
</svg>
