<svg width="14" height="14" viewBox="0 0 14 14" fill="none" xmlns="http://www.w3.org/2000/svg">
<path fill-rule="evenodd" clip-rule="evenodd" d="M6.12484 3.20835C4.75563 3.20835 3.64567 4.31831 3.64567 5.68752C3.64567 5.84559 3.66039 5.9997 3.68838 6.14869C3.74235 6.43601 3.57531 6.7189 3.29765 6.8104C2.48269 7.07898 1.89567 7.84671 1.89567 8.75002C1.89567 9.8776 2.80976 10.7917 3.93734 10.7917H10.4998C11.3858 10.7917 12.104 10.0735 12.104 9.18752C12.104 8.5031 11.6751 7.91739 11.0694 7.68725C10.7737 7.5749 10.6215 7.24736 10.7262 6.94887C10.7683 6.82871 10.7915 6.69895 10.7915 6.56252C10.7915 5.91819 10.2692 5.39585 9.62484 5.39585C9.49811 5.39585 9.3772 5.41585 9.26443 5.45242C9.11213 5.50182 8.94621 5.48643 8.80558 5.40988C8.66496 5.33333 8.56197 5.20234 8.52078 5.04761C8.23872 3.98816 7.2721 3.20835 6.12484 3.20835ZM2.479 5.68752C2.479 3.67398 4.1113 2.04169 6.12484 2.04169C7.6224 2.04169 8.908 2.94419 9.46935 4.23431C9.52079 4.23091 9.57263 4.22919 9.62484 4.22919C10.9135 4.22919 11.9582 5.27386 11.9582 6.56252C11.9582 6.65024 11.9533 6.73695 11.9438 6.82238C12.7391 7.30892 13.2707 8.18562 13.2707 9.18752C13.2707 10.7178 12.0301 11.9584 10.4998 11.9584H3.93734C2.16542 11.9584 0.729004 10.5219 0.729004 8.75002C0.729004 7.50038 1.44314 6.41872 2.48449 5.8889C2.48085 5.82219 2.479 5.75505 2.479 5.68752ZM6.58736 5.27504C6.81516 5.04724 7.18451 5.04724 7.41232 5.27504L9.16232 7.02504C9.39012 7.25285 9.39012 7.62219 9.16232 7.85C8.93451 8.07781 8.56516 8.07781 8.33736 7.85L7.58317 7.09581L7.58317 9.62502C7.58317 9.94719 7.322 10.2084 6.99984 10.2084C6.67767 10.2084 6.4165 9.94719 6.4165 9.62502L6.4165 7.09581L5.66232 7.85C5.43451 8.0778 5.06516 8.0778 4.83736 7.85C4.60955 7.62219 4.60955 7.25285 4.83736 7.02504L6.58736 5.27504Z" fill="#FFFFFF"/>
</svg>
