<svg width="16" height="16" viewBox="0 0 16 16" fill="none" xmlns="http://www.w3.org/2000/svg">
<path fill-rule="evenodd" clip-rule="evenodd" d="M8.00065 2.66671C5.05513 2.66671 2.66732 5.05452 2.66732 8.00004C2.66732 10.9456 5.05513 13.3334 8.00065 13.3334C10.9462 13.3334 13.334 10.9456 13.334 8.00004C13.334 5.05452 10.9462 2.66671 8.00065 2.66671ZM1.33398 8.00004C1.33398 4.31814 4.31875 1.33337 8.00065 1.33337C11.6825 1.33337 14.6673 4.31814 14.6673 8.00004C14.6673 11.6819 11.6825 14.6667 8.00065 14.6667C4.31875 14.6667 1.33398 11.6819 1.33398 8.00004ZM8.00065 5.33337C8.36884 5.33337 8.66732 5.63185 8.66732 6.00004V8.50004C8.66732 8.86823 8.36884 9.16671 8.00065 9.16671C7.63246 9.16671 7.33398 8.86823 7.33398 8.50004V6.00004C7.33398 5.63185 7.63246 5.33337 8.00065 5.33337ZM7.33398 10.5C7.33398 10.1319 7.63246 9.83337 8.00065 9.83337H8.00565C8.37384 9.83337 8.67232 10.1319 8.67232 10.5V10.505C8.67232 10.8732 8.37384 11.1717 8.00565 11.1717H8.00065C7.63246 11.1717 7.33398 10.8732 7.33398 10.505V10.5Z" fill="#2671D9"/>
</svg>
