<svg width="49" height="48" viewBox="0 0 49 48" fill="none" xmlns="http://www.w3.org/2000/svg">
<circle cx="24.5" cy="24" r="24" fill="#F6F7FD"/>
<path d="M17.625 13.5C16.5895 13.5 15.75 14.3395 15.75 15.375V32.625C15.75 33.6605 16.5895 34.5 17.625 34.5H30.375C31.4105 34.5 32.25 33.6605 32.25 32.625V24.75C32.25 22.6789 30.5711 21 28.5 21H26.625C25.5895 21 24.75 20.1605 24.75 19.125V17.25C24.75 15.1789 23.0711 13.5 21 13.5H17.625Z" fill="#004D8B"/>
<path d="M24.9712 13.8159C25.768 14.7365 26.25 15.9369 26.25 17.25V19.125C26.25 19.3321 26.4179 19.5 26.625 19.5H28.5C29.8131 19.5 31.0135 19.982 31.9341 20.7788C31.0462 17.3799 28.3701 14.7038 24.9712 13.8159Z" fill="#004D8B"/>
</svg>
