<svg width="48" height="48" viewBox="0 0 48 48" fill="none" xmlns="http://www.w3.org/2000/svg">
<circle cx="24" cy="24" r="24" fill="#F6F7FD"/>
<path d="M16.5 18.375C16.5 16.0968 18.3468 14.25 20.625 14.25C22.9032 14.25 24.75 16.0968 24.75 18.375C24.75 20.6532 22.9032 22.5 20.625 22.5C18.3468 22.5 16.5 20.6532 16.5 18.375Z" fill="#333333"/>
<path d="M26.25 20.625C26.25 18.761 27.761 17.25 29.625 17.25C31.489 17.25 33 18.761 33 20.625C33 22.489 31.489 24 29.625 24C27.761 24 26.25 22.489 26.25 20.625Z" fill="#333333"/>
<path d="M13.5 31.125C13.5 27.19 16.69 24 20.625 24C24.56 24 27.75 27.19 27.75 31.125V31.1276C27.75 31.1674 27.7496 31.2074 27.749 31.2469C27.7446 31.5054 27.6074 31.7435 27.3859 31.8768C25.4107 33.0661 23.0966 33.75 20.625 33.75C18.1534 33.75 15.8393 33.0661 13.8641 31.8768C13.6426 31.7435 13.5054 31.5054 13.501 31.2469C13.5003 31.2064 13.5 31.1657 13.5 31.125Z" fill="#333333"/>
<path d="M29.2498 31.1281C29.2498 31.1762 29.2494 31.2244 29.2486 31.2722C29.2429 31.6108 29.1612 31.9378 29.0157 32.232C29.2172 32.2439 29.4203 32.25 29.6248 32.25C31.2205 32.25 32.732 31.8803 34.0764 31.2213C34.3234 31.1002 34.4843 30.8536 34.4957 30.5787C34.4984 30.5111 34.4998 30.4432 34.4998 30.375C34.4998 27.6826 32.3172 25.5 29.6248 25.5C28.8784 25.5 28.1711 25.6678 27.5387 25.9676C28.6135 27.4061 29.2498 29.1912 29.2498 31.125V31.1281Z" fill="#333333"/>
</svg>
