<svg width="48" height="48" viewBox="0 0 48 48" fill="none" xmlns="http://www.w3.org/2000/svg">
<circle cx="24" cy="24" r="24" fill="#F6F7FD"/>
<path d="M29.1266 18.8721L29.1265 18.8719C28.2568 18.0006 27.1535 17.3394 25.8761 16.9971C22.0084 15.9607 18.033 18.256 16.9967 22.1236C16.8537 22.6571 16.3054 22.9736 15.7719 22.8307C15.2384 22.6878 14.9219 22.1394 15.0648 21.606C16.387 16.6714 21.4591 13.743 26.3937 15.0652C28.0196 15.5009 29.4305 16.3456 30.5418 17.4588L29.1266 18.8721ZM29.1266 18.8721L30.6029 20.3484H28.0228C27.4705 20.3484 27.0228 20.7961 27.0228 21.3484C27.0228 21.9006 27.4705 22.3484 28.0228 22.3484H33.0154C33.2806 22.3484 33.535 22.243 33.7225 22.0554C33.91 21.8678 34.0154 21.6135 34.0154 21.3482C34.0154 21.3482 34.0154 21.3482 34.0154 21.3482V16.3557C34.0154 15.8035 33.5676 15.3557 33.0154 15.3557C32.4631 15.3557 32.0154 15.8035 32.0154 16.3557V18.9324L30.542 17.459L29.1266 18.8721ZM18.8727 29.1281L18.8728 29.1282C19.7424 29.9995 20.8458 30.6607 22.1232 31.003C25.9908 32.0393 29.9662 29.7441 31.0026 25.8765C31.1455 25.343 31.6939 25.0264 32.2273 25.1694C32.7608 25.3123 33.0774 25.8606 32.9344 26.3941C31.6122 31.3287 26.5401 34.2571 21.6055 32.9349C19.9795 32.4991 18.5688 31.6546 17.4574 30.5412L18.8727 29.1281ZM18.8727 29.1281L17.3972 27.6517H19.9768C20.5291 27.6517 20.9768 27.204 20.9768 26.6517C20.9768 26.0994 20.5291 25.6517 19.9768 25.6517L14.9841 25.6517C14.4318 25.6517 13.9841 26.0994 13.9841 26.6517V31.6443C13.9841 32.1966 14.4318 32.6443 14.9841 32.6443C15.5364 32.6443 15.9841 32.1966 15.9841 31.6443V29.067L17.4573 30.5411L18.8727 29.1281Z" fill="#FFAA00" stroke="#FFAA00" stroke-width="0.5" stroke-linecap="round" stroke-linejoin="round"/>
</svg>
